<?xml version="1.0" encoding="UTF-8"?>
<svg id="Layer_2" data-name="Layer 2" xmlns="http://www.w3.org/2000/svg" viewBox="0 0 1577.83 422">
  <defs>
    <style>
      .cls-1, .cls-2 {
        fill: #fff;
        stroke-width: 0px;
      }

      .cls-2 {
        fill-rule: evenodd;
      }
    </style>
  </defs>
  <g id="Layer_1-2" data-name="Layer 1">
    <path class="cls-2" d="M179.74.62c-25.92,2.04-48.2,14.37-63.5,35.13-11.33,15.38-17.76,36.69-16.76,55.61q.41,7.79-8.99,7.79c-42.79,0-77.46,25.77-88.22,65.56-3.01,11.14-3.01,30.25,0,41.39,2.91,10.76,6.66,19.19,12.46,28.05,11.58,17.65,28.81,30.19,49.32,35.91,6.83,1.91,9.43,2,68.91,2.54,59.64.54,62.06.63,69.01,2.56,10.11,2.81,19.43,7.99,26.7,14.85,3.43,3.23,6.23,6.24,6.23,6.69s-38.68.81-89.53.81c-100.09,0-97.41-.16-111.14,6.44-13.94,6.69-25.65,20.14-31.27,35.89-2.59,7.27-2.83,8.93-2.82,19.48.01,10.22.3,12.37,2.59,18.91,8.45,24.23,28.26,39.94,54.08,42.9,10.18,1.17,124.02,1.15,136.06-.02,17.46-1.7,31.99-7.28,45.54-17.49,16.2-12.21,26.53-27.09,31.52-45.42,2.25-8.25,3.92-22.36,3.54-29.79q-.28-5.54,13.09-6.14c15.79-.71,24.03-2.66,36.9-8.74,25.75-12.16,43.53-35.54,48.44-63.73,6.63-38.02-13-76.07-47.98-93.03-18.47-8.95-27.34-9.83-95.48-9.46-39.32.21-51.49,0-55.81-.96-9.21-2.04-19.65-7.64-27.04-14.48-3.65-3.38-6.63-6.52-6.63-6.98,0-.49,36.44-.84,89.07-.84,76.29,0,90.09-.2,96.18-1.41,21.22-4.22,39.29-20.71,46.47-42.41,1.75-5.3,2.14-8.44,2.14-17.53,0-9.74-.31-12.05-2.67-19.24-7.22-22.01-23.74-36.53-48.06-42.21-5.29-1.23-127.81-1.79-142.35-.64M177.24,25.98c-14.87,2.05-31.1,11.76-39.64,23.73-8.01,11.23-11.31,20.76-12.14,35.14-.94,16.11-12.86,14.3,94.07,14.3,58.71,0,94.43-.34,97.58-.94,11.38-2.14,22.58-10.71,27.38-20.96,2.22-4.73,2.49-6.41,2.49-15.03,0-9.1-.19-10.09-3.01-15.83-3.82-7.76-11.85-15.42-19.32-18.44q-5.34-2.15-74.99-2.26c-38.31-.06-70.9.07-72.42.27M77.6,124.99c-10.7,1.61-17.98,4.65-27.81,11.62-17.72,12.56-26.64,33.3-24.15,56.12,2.64,24.14,18.8,44.27,41.69,51.93q7.5,2.51,69.77,3.09c71.18.66,69.48.49,87.22,9.12,15.86,7.72,27.08,17.98,36.91,33.75q4.44,7.13,19.73,6.63c17.02-.55,22.6-1.71,32.71-6.77,15.59-7.81,26.26-20.23,31.62-36.78,3.03-9.36,3.44-24.28.93-33.67-4.82-18.03-16.91-32.9-33.35-41.01-12.13-5.98-12.5-6.01-73.36-6.03-34.11-.01-58.04-.4-63.2-1.03-27.57-3.36-51.39-18.8-64.61-41.88-1.45-2.54-3.08-4.92-3.61-5.29-1.23-.86-24.39-.7-30.49.22M53.62,323.69c-10.99,2.67-19.65,9.91-24.76,20.7-2.68,5.65-2.92,6.93-2.91,15.39.01,8.63.21,9.63,3.14,15.49,3.94,7.88,11.73,15.33,19.19,18.34q5.34,2.15,73.15,2.44c47.13.2,69.92-.03,74.73-.75,9.52-1.44,23.45-8.23,31.1-15.18,7.69-6.98,14.38-17.19,17.43-26.6,2.01-6.18,2.48-9.45,2.57-17.73.06-5.58-.19-10.88-.55-11.76-.63-1.52-5.96-1.61-94.56-1.54-70.34.06-95.06.36-98.51,1.2"/>
    <g>
      <path class="cls-1" d="M476.78,91.41h43.88v25.89h.72c14.75-21.94,37.04-32.37,64.02-32.37,29.13,0,51.79,9.35,72.29,32.37,18.34,19.06,27.69,45.67,27.69,73.73,0,56.46-41.72,106.09-99.98,106.09-25.17,0-44.59-8.27-60.06-28.05h-.72v88.11h-47.83V91.41ZM521.74,191.03c0,17.26,5.75,32.73,18.7,44.23,10.07,8.99,24.82,15.1,38.12,15.1,33.8,0,58.98-26.25,58.98-59.7,0-31.65-24.81-58.98-57.18-58.98s-58.62,26.25-58.62,59.34Z"/>
      <path class="cls-1" d="M714.13,24.88h47.83v43.52h-47.83V24.88ZM714.13,91.41h47.83v199.24h-47.83V91.41Z"/>
      <path class="cls-1" d="M879.92,146.07c-1.44-9.35-9.35-14.39-18.34-14.39-10.43,0-19.06,6.11-18.7,16.9-.36,13.31,17.26,16.54,26.97,19.42,32.01,9.71,62.22,20.5,62.22,60.42,0,18.7-6.83,34.88-20.14,47.83-13.31,12.23-33.45,20.86-51.79,20.86-40.64,0-70.85-28.05-72.29-69.05h48.91c2.52,12.59,11.15,22.3,25.17,22.3,11.51,0,22.3-6.47,22.3-19.06,0-16.54-21.22-21.58-33.81-25.89-14.75-4.68-23.74-7.19-35.96-17.26-12.95-10.79-19.42-24.81-19.42-41.72,0-37.04,32.01-61.5,67.25-61.5,33.09,0,64.38,26.97,64.38,61.14h-46.75Z"/>
      <path class="cls-1" d="M965.87,133.85h-23.38v-42.44h23.38V24.88h47.83v66.53h28.77v42.44h-28.77v156.8h-47.83v-156.8Z"/>
      <path class="cls-1" d="M1269.75,191.39c0,58.98-47.83,105.73-106.45,105.73s-105.37-47.83-105.37-105.73,47.83-106.45,107.53-106.45,104.29,48.55,104.29,106.45ZM1122.3,150.03c-11.15,11.15-16.54,25.53-16.54,41.36,0,32.01,24.82,58.98,57.54,58.98s58.62-25.53,58.62-58.98-25.53-59.7-58.62-59.7c-14.75,0-30.93,7.55-41,18.34Z"/>
      <path class="cls-1" d="M1296.72,91.41h44.24v18.34h.72c11.87-16.54,33.45-24.81,54.3-24.81s42.44,9.35,56.82,24.81c1.8,1.8,3.6,3.6,5.03,5.75,15.46,21.58,15.82,46.39,15.82,71.93v103.21h-47.83v-93.86c0-15.46,0-35.24-8.27-48.55-6.83-10.43-19.42-16.54-31.65-16.54-12.95,0-26.97,6.83-33.45,17.62-8.63,13.67-7.91,35.24-7.91,51.07v90.27h-47.83V91.41Z"/>
      <path class="cls-1" d="M1512.49,24.88h47.83v43.52h-47.83V24.88ZM1512.49,91.41h47.83v199.24h-47.83V91.41Z"/>
    </g>
    <g>
      <path class="cls-1" d="M849.78,347.76h9.65c4.82,0,9.72-.22,14.19,2.02,4.39,2.23,7.49,6.98,7.49,11.95,0,4.18-1.94,8.28-5.83,10.15,5.83,1.87,9.07,6.84,9.07,12.89,0,5.18-2.38,9.58-6.48,12.67-4.25,3.1-9.65,3.38-14.76,3.53h-13.32v-53.21ZM861.52,368.21c2.09,0,4.82.07,6.7-.79,1.87-.86,3.02-2.88,3.02-4.9,0-2.16-1.37-3.89-3.31-4.68-1.87-.86-4.39-.5-6.48-.5h-1.8v10.87h1.87ZM863.75,391.39c2.88,0,5.54-.14,8.14-1.87,1.8-1.22,2.59-2.95,2.59-5.18,0-2.59-1.22-4.18-3.53-5.47-2.23-1.15-4.61-1.08-6.98-1.08h-4.32v13.61h4.1Z"/>
      <path class="cls-1" d="M930.93,400.97h-8.79v-5.4h-.14c-2.88,4.1-8.5,6.7-13.54,6.7-6.19,0-11.23-2.59-14.69-6.7-3.17-3.82-4.97-9-4.97-14.54s1.44-10.15,5.11-14.33c4.03-4.68,9-6.91,14.83-6.91,5.47,0,10.23,2.45,13.39,6.91v-5.62h8.79v39.89ZM910.33,369.14c-7.06-.07-11.95,5.26-11.95,12.24,0,6.55,5.33,11.59,11.81,11.52,6.91.07,11.66-5.11,11.66-11.95s-4.75-11.88-11.52-11.81Z"/>
      <path class="cls-1" d="M938.05,347.76h9.58v53.21h-9.58v-53.21Z"/>
      <path class="cls-1" d="M955.33,347.76h9.58v32.12l12.82-18.79h11.3l-14.4,19.51,16.78,20.38h-12.82l-13.68-18.65v18.65h-9.58v-53.21Z"/>
      <path class="cls-1" d="M1037.48,400.97h-8.79v-5.4h-.14c-2.88,4.1-8.5,6.7-13.54,6.7-6.19,0-11.23-2.59-14.69-6.7-3.17-3.82-4.97-9-4.97-14.54s1.44-10.15,5.11-14.33c4.03-4.68,9-6.91,14.83-6.91,5.47,0,10.22,2.45,13.39,6.91v-5.62h8.79v39.89ZM1016.89,369.14c-7.06-.07-11.95,5.26-11.95,12.24,0,6.55,5.33,11.59,11.81,11.52,6.91.07,11.67-5.11,11.67-11.95s-4.75-11.88-11.52-11.81Z"/>
      <path class="cls-1" d="M1044.61,361.08h8.86v3.67h.14c2.38-3.31,6.7-4.97,10.87-4.97s8.5,1.87,11.38,4.97c.36.36.72.72,1.01,1.15,3.1,4.32,3.17,9.29,3.17,14.4v20.67h-9.58v-18.79c0-3.1,0-7.06-1.66-9.72-1.37-2.09-3.89-3.31-6.34-3.31-2.59,0-5.4,1.37-6.7,3.53-1.73,2.74-1.58,7.06-1.58,10.23v18.07h-9.58v-39.89Z"/>
      <path class="cls-1" d="M1126.76,347.76h7.71l22.39,53.21h-10.87l-5.76-13.75h-18.87l-5.9,13.75h-10.87l22.18-53.21ZM1136.34,377.64l-5.69-16.13-5.69,16.13h11.38Z"/>
      <path class="cls-1" d="M1196.75,361.08v39.89h-8.79v-4.25h-.14c-2.02,3.89-5.76,5.54-10.15,5.54-4.75,0-9.29-1.8-12.6-5.54-3.6-3.82-3.82-7.99-3.82-13.11v-22.54h9.58v19.59c0,2.45.07,5.83,1.22,8.14,1.29,2.59,3.89,4.1,6.84,4.1,7.27,0,8.28-6.55,8.28-12.24v-19.59h9.58Z"/>
      <path class="cls-1" d="M1205.89,369.57h-4.68v-8.5h4.68v-13.32h9.58v13.32h5.76v8.5h-5.76v31.39h-9.58v-31.39Z"/>
      <path class="cls-1" d="M1266.73,381.09c0,11.81-9.58,21.17-21.31,21.17s-21.1-9.58-21.1-21.17,9.58-21.31,21.53-21.31,20.88,9.72,20.88,21.31ZM1237.2,372.81c-2.23,2.23-3.31,5.11-3.31,8.28,0,6.41,4.97,11.81,11.52,11.81s11.74-5.11,11.74-11.81-5.11-11.95-11.74-11.95c-2.95,0-6.19,1.51-8.21,3.67Z"/>
      <path class="cls-1" d="M1293.29,347.76h9.87v43.64h16.27v9.58h-26.14v-53.21Z"/>
      <path class="cls-1" d="M1364.65,381.09c0,11.81-9.58,21.17-21.31,21.17s-21.1-9.58-21.1-21.17,9.58-21.31,21.53-21.31,20.88,9.72,20.88,21.31ZM1335.12,372.81c-2.23,2.23-3.31,5.11-3.31,8.28,0,6.41,4.97,11.81,11.52,11.81s11.74-5.11,11.74-11.81-5.11-11.95-11.74-11.95c-2.95,0-6.19,1.51-8.21,3.67Z"/>
      <path class="cls-1" d="M1410.15,361.08v33.84c0,6.19-1.3,10.87-5.62,15.41-4.1,4.25-9.87,6.84-15.84,6.84-8.42,0-16.85-5.11-19.8-13.18h10.87c2.16,2.3,5.83,3.82,8.93,3.82s6.62-1.15,8.93-3.31c2.88-2.66,3.24-5.4,3.82-8.93l-.14-.14c-3.17,4.1-7.27,6.84-12.75,6.84-5.04,0-10.8-2.66-14.26-6.26-3.96-4.1-5.98-9.86-5.98-15.55,0-5.26,2.02-10.15,5.33-13.9,3.74-4.1,9.14-6.77,15.12-6.77,5.18,0,10.08,2.16,12.46,6.77h.14v-5.47h8.79ZM1389.2,369.14c-3.1,0-6.05,1.37-8.14,3.53-2.23,2.3-3.17,4.97-3.17,8.14,0,6.91,5.11,12.1,12.03,12.1,6.34,0,11.23-5.62,11.23-11.74,0-6.84-5.18-12.03-11.95-12.03Z"/>
      <path class="cls-1" d="M1417.56,347.76h9.58v8.71h-9.58v-8.71ZM1417.56,361.08h9.58v39.89h-9.58v-39.89Z"/>
      <path class="cls-1" d="M1450.76,372.02c-.29-1.87-1.87-2.88-3.67-2.88-2.09,0-3.82,1.22-3.74,3.38-.07,2.66,3.46,3.31,5.4,3.89,6.41,1.94,12.46,4.1,12.46,12.1,0,3.74-1.37,6.98-4.03,9.58-2.66,2.45-6.7,4.18-10.37,4.18-8.14,0-14.19-5.62-14.47-13.83h9.79c.5,2.52,2.23,4.46,5.04,4.46,2.3,0,4.46-1.3,4.46-3.82,0-3.31-4.25-4.32-6.77-5.18-2.95-.94-4.75-1.44-7.2-3.46-2.59-2.16-3.89-4.97-3.89-8.35,0-7.42,6.41-12.31,13.46-12.31,6.62,0,12.89,5.4,12.89,12.24h-9.36Z"/>
      <path class="cls-1" d="M1467.96,369.57h-4.68v-8.5h4.68v-13.32h9.58v13.32h5.76v8.5h-5.76v31.39h-9.58v-31.39Z"/>
      <path class="cls-1" d="M1488.12,347.76h9.58v8.71h-9.58v-8.71ZM1488.12,361.08h9.58v39.89h-9.58v-39.89Z"/>
      <path class="cls-1" d="M1544.79,388.01c-2.59,8.5-11.02,14.26-19.8,14.26-5.4,0-10.95-2.23-14.83-5.98-4.32-4.1-6.48-9.65-6.48-15.55,0-11.67,9.65-20.95,21.24-20.95,8.79,0,17.5,5.9,19.87,14.54h-10.8c-2.09-3.53-5.11-5.18-9.22-5.18-6.84,0-11.52,5.11-11.52,11.74,0,7.06,5.04,12.03,12.02,12.03,3.53,0,6.91-1.94,8.71-4.9h10.8Z"/>
      <path class="cls-1" d="M1567.39,372.02c-.29-1.87-1.87-2.88-3.67-2.88-2.09,0-3.82,1.22-3.74,3.38-.07,2.66,3.46,3.31,5.4,3.89,6.41,1.94,12.46,4.1,12.46,12.1,0,3.74-1.37,6.98-4.03,9.58-2.66,2.45-6.7,4.18-10.37,4.18-8.14,0-14.19-5.62-14.47-13.83h9.79c.5,2.52,2.23,4.46,5.04,4.46,2.3,0,4.46-1.3,4.46-3.82,0-3.31-4.25-4.32-6.77-5.18-2.95-.94-4.75-1.44-7.2-3.46-2.59-2.16-3.89-4.97-3.89-8.35,0-7.42,6.41-12.31,13.46-12.31,6.62,0,12.89,5.4,12.89,12.24h-9.36Z"/>
    </g>
  </g>
</svg>