<?xml version="1.0" encoding="UTF-8"?>
<svg id="Layer_2" xmlns="http://www.w3.org/2000/svg" viewBox="0 0 721.7 173.83">
  <defs>
    <style>
      .cls-1 {
        fill: #1c1c1c;
      }
    </style>
  </defs>
  <g id="Layer_1-2" data-name="Layer_1">
    <g>
      <path d="M279.37,23.99l66.61,122.97-31.15,6.3-12.6-26.47h-46.99l-12.42,26.47-29.71-6.3,65.89-122.97h.36ZM262.63,103.93h32.77l-16.38-30.25-16.38,30.25Z"/>
      <path d="M382.71,32.09l-18,17.64-20.34-14.76,17.64-18,20.7,15.12ZM378.57,148.94l-28.09,2.88V58.92l28.09-2.88v92.9Z"/>
      <path d="M405.57,121.39c5.58,5.58,12.42,8.46,20.34,8.46,4.68,0,12.6-.72,12.6-7.38,0-12.78-43.21,0-43.21-37.63,0-20.7,16.74-30.25,35.11-30.25,11.16,0,22.68,5.4,30.79,12.96l-15.48,15.66c-3.96-3.06-9.54-5.22-14.76-5.22-3.42,0-9.54.72-9.54,5.58,0,15.48,43.21,0,43.21,38.53,0,20.34-18.18,31.15-36.37,31.15-15.66,0-24.49-3.06-36.91-12.6l14.22-19.26Z"/>
      <path d="M508.54,22.01v126.93l-28.09,2.88V24.89l28.09-2.88Z"/>
      <path d="M522.95,103.93c0-28.63,24.3-49.33,51.49-49.33s51.67,20.7,51.67,49.33-24.31,49.33-51.67,49.33-51.49-20.7-51.49-49.33ZM574.44,127.15c12.6,0,23.58-10.26,23.58-23.22s-10.98-23.23-23.58-23.23-23.41,10.26-23.41,23.23,10.98,23.22,23.41,23.22Z"/>
      <path d="M663.37,68.64h.36c7.2-10.8,16.38-14.04,24.12-14.04,25.39,0,33.85,16.2,33.85,39.25v55.09l-28.09,2.88v-55.99c0-10.8-5.58-16.02-14.04-16.02s-14.04,5.22-14.04,16.02v53.11l-28.09,2.88V57.48l25.93-2.88v14.04Z"/>
    </g>
    <path class="cls-1" d="M140.12,121.34c3.27-9.78,8.21-18.8,12.93-27.89,7.61-14.65,15.82-28.95,28.15-40.34,2.07-1.91,2.26-2.88.63-5.14-3.27-4.53-6.55-9.08-10.23-13.27-8.43-9.6-18.2-17.69-29.59-23.53C126.35,3.13,109.52-.28,91.97.02c-16.09.27-31.68,2.76-45.87,11.07-1.76,1.03-2.77,2.08-2.66,4.11.04.67-.08,1.35-.05,2.03.62,17.07-.12,34.08-2.41,51-.52,3.83-1.07,7.67-1.87,11.45-.35,1.62-1.53,3.03-2.1,4.63-1.1,3.12-1.97,6.32-3.06,9.45-.88,2.53-1.64,3.03-4.15,2.13-2.81-1-5.63-2.19-8.15-3.77-3.85-2.4-7.45-5.22-11.17-7.83-2.34-1.64-4.34-1.67-6.22.49-1.48,1.71-2.84,3.81-3.44,5.96-2.23,8.08-.05,18.35,8.84,25.03,10.52,7.9,22.72,10.94,35.48,11.96,5.67.46,10.32,2.26,14.61,6.04,7.98,7.03,15.96,14.14,24.54,20.4,12.58,9.17,26.07,16.75,41.89,18.95,6.19.86,12.35,1.18,18.47-.57,9.77-2.79,18.35-14.05,17.49-23.48-.5-5.53-2.73-10.28-6.1-14.58-4.31-5.5-9.9-9.29-16.31-12.1.14-.39.27-.72.38-1.07ZM124.57,11c-10.49-2.29-21.11-3.47-31.86-3.13-2,.06-4,.56-5.96,1.01-1.41.32-1.97,1.38-2.17,2.85-1.99,14.36-3.96,28.72-6.12,43.06-1.36,9.05-3.06,18.04-4.54,27.07-.23,1.39-.77,1.7-2.08,1.47-1.81-.32-3.65-.45-5.82-.7,3.16-23.74,6.31-47.45,9.49-71.41-3.83-.14-7.18.42-10.2,2.16-.78.45-1.31,1.81-1.44,2.82-.58,4.63-.9,9.3-1.44,13.94-1.13,9.71-2.35,19.4-3.49,29.11-.88,7.5-1.71,15.02-2.59,22.78-3-.14-5.98-.23-8.95-.45-4.12-.31-4.17-.36-3.47-4.38,2.46-14.26,3.99-28.62,4.1-43.1.04-5.95-.24-11.91-.26-17.87,0-.59.62-1.49,1.17-1.72,5.27-2.16,10.48-4.53,15.9-6.23,13.42-4.2,27.22-4.77,41.08-2.96,9.64,1.26,18.96,3.92,27.85,7.98-3.07-.77-6.11-1.63-9.2-2.3ZM15.77,95.08c-1.3-.54-2.52-1.3-3.84-1.79-1.95-.72-2.86-.02-3.1,2.04-.46,4.09,1.35,7.29,3.99,10.12,4.8,5.15,11.07,7.72,17.67,9.37,3.78.95,7.76,1.39,11.66,1.52,9.84.33,19.68.35,29.52.51,20.78.33,41.12,3.25,60.8,10.22,5.93,2.1,11.25,5.18,16.2,8.99,3.55,2.74,6.41,6.2,7.8,10.33,2.4,7.11,1.34,13.12-4.44,17.85-5.38,4.4-11.61,5.97-18.47,5.17-1.32-.15-2.63-.36-3.92-.74,2.51-.26,5.03-.42,7.51-.81,5.4-.86,9.22-4.15,12.27-8.44,2.83-3.98,2.86-8.2.3-12.27-3.11-4.93-7.37-8.72-12.48-11.53-9.38-5.15-19.47-8.28-30.04-9.5-11.17-1.29-22.4-2.09-33.61-2.91-6.5-.48-13.03-.44-19.54-.87-6.93-.46-13.88-.94-20.75-1.9-7.53-1.06-14.42-4.13-20.55-8.6-6.67-4.87-8.8-11.71-7.64-19.7.12-.83.45-1.67.86-2.41.89-1.6,2.27-1.97,3.89-1.08.97.53,1.83,1.24,2.78,1.82,3.94,2.38,7.89,4.74,11.84,7.1.25.15.49.3.74.44-.11.24-.22.48-.34.72-3.05-1.21-6.11-2.39-9.15-3.64ZM67.16,93.5c1.88.35,3.66.68,5.69,1.05-.71,3.77-1.4,7.47-2.11,11.3,4.59,1.26,9,2.47,13.41,3.68-.01.03-.02.06-.03.09-16.05-1.65-32.1-3.29-48.52-4.98,1.65-6.17,3.33-12.42,4.94-18.42,4.25,0,8.43-.3,12.56.06,8.32.74,16.7,1.35,24.88,2.91,18.95,3.62,37.77,7.86,55.21,16.57,1.53.76,3.08,1.56,4.43,2.6.74.58,1.08,1.69,1.37,2.73-26.93-12.32-54.77-20.57-84.27-22.69-.5-.04-1.03.24-1.64.84.77.3,1.55.59,2.56.98-.63,3.34-1.24,6.75-1.91,10.15-.69,3.44-.47,3.67,3.09,3.89,2.5.15,4.98.53,7.6.82.95-4.03,1.82-7.73,2.73-11.59Z"/>
  </g>
</svg>