<?xml version="1.0" encoding="UTF-8"?>
<svg id="Layer_2" data-name="Layer 2" xmlns="http://www.w3.org/2000/svg" viewBox="0 0 1178.36 347.6">
  <defs>
    <style>
      .cls-1 {
        fill: #202b5e;
        stroke-width: 0px;
      }

      .cls-2 {
        stroke: #010101;
      }

      .cls-2, .cls-3 {
        fill: none;
        stroke-width: .3px;
      }

      .cls-3 {
        stroke: #fff;
      }
    </style>
  </defs>
  <g id="Layer_1-2" data-name="Layer 1">
    <g>
      <path class="cls-3" d="M319.99.21c-6.06,4.28-11.73,9.03-18.24,12.63,2.58,4.78,7.06,8.78,8.42,14.03h-49.1v42.08c7-.5,20.86-1.52,12.63,8.42h37.88V26.86c5.34,8.29,14.36-5.58,21.04-8.42-4.64-5.84-8.43-12.08-12.63-18.24Z"/>
      <path class="cls-3" d="M273.7,73.16c-15.43-.74-41.66-3.86-57.49-1.36-15.81,2.48-23.68,14.18-31.86,27.05-8.19,12.85-12.51,23.64-20.19,38.73-7.66,15.11-23.61,5.53-36.25-1.4-12.65-6.92-25.97-13.34-39.28-19.64-13.33-6.28-25.14-14.13-39.28-19.64-14.14-5.5-23.62-15.66-39.35-19.56-15.74-3.9-8.74,25.62-5.34,37.6,3.41,11.97,8.92,31.25,15.45,43.47,6.52,12.22,14.73,23.67,24.58,34.34,9.83,10.68,18.43,20.28,32.52,26.4,14.07,6.13,34.54,4.63,49.2-.1-4.22,11.14-15.87,18.43-24.2,27.71s-17.23,16.61-25.95,25.95-18.01,15.98-24.3,27.61c-6.28,11.63,5.39,29.33,15.42,33.88,10.03,4.55,24.97,21.53,32.39,8.32,7.41-13.23.28-30.97,8.4-43.5,2.22,3.98,5.46,34.69,13.68,26.3,8.21-8.4,7.22-19.68,1.66-31.82-5.58-12.12-1.5-22.29,14.1-19.77,15.59,2.51,24.23-4.39,37.88-4.21,13.65.17,20.17-6.83,32.29-9.79,3.07,11.53,15.84,14.06-.42,23.43-16.27,9.36-31.37,25.66-48.68,32.69,10.94-11.73,29.18-17.44,37.88-30.86-16.03,5.64-28.15,20.75-43.49,28.06,2.2,5.58,1.57,9.72,2.81,15.43-15.95,4.5-2.93,20.48,5.61,7.01,17.63,4.38,31.4-16.89,47.37-25.57,15.98-8.68,29.78-23.31,45.63-32.92,15.87-9.6,30.47-23.58,37.46-41.1-23.27,2.41-41.12,16.38-60.32,28.06-1.08-6.37-6.23-10.84-8.42-16.83,26.29-22.25,30.01-59.89,19.54-91.08-10.47-31.2-3.35-71.29,30.96-82.86M223.2,82.98c8,2.61,2.79,17.39-5.61,14.03-8.4-3.38-3.83-17.1,5.61-14.03M220.39,251.31c2.1,6.03,6.97,10.69,8.42,16.83-2.6,1.36-5.95,2.51-7.01,5.61-3.8-5.44-8.15-11.53-9.82-18.24,3.73.67,4.66-4.95,8.42-4.21Z"/>
      <path class="cls-3" d="M108.17,78.77c-16.4-4.15-13.28,25.35-5.96,34.02s22.61,9.88,31.1,18c8.49,8.11,30.08,6.2,28.13-7.08-1.94-13.3-17.23-17.23-25.56-23.54-8.32-6.33-18.38-19.02-27.71-21.39Z"/>
      <path class="cls-2" d="M223.2,82.98c-9.44-3.07-14.01,10.65-5.61,14.03,8.4,3.37,13.61-11.42,5.61-14.03Z"/>
      <path class="cls-2" d="M220.39,251.31c-3.76-.74-4.69,4.88-8.42,4.21,1.67,6.71,6.02,12.79,9.82,18.24,1.07-3.1,4.42-4.25,7.01-5.61-1.44-6.14-6.31-10.8-8.42-16.83Z"/>
      <path class="cls-1" d="M319.99.21c-6.06,4.28-11.73,9.03-18.24,12.63,2.58,4.78,7.06,8.78,8.42,14.03h-49.1v42.08c7-.5,20.86-1.52,12.63,8.42h37.88V26.86c5.34,8.29,14.36-5.58,21.04-8.42-4.64-5.84-8.43-12.08-12.63-18.24Z"/>
      <path class="cls-1" d="M273.7,73.16c-15.43-.74-41.66-3.86-57.49-1.36-15.81,2.48-23.68,14.18-31.86,27.05-8.19,12.85-12.51,23.64-20.19,38.73-7.66,15.11-23.61,5.53-36.25-1.4-12.65-6.92-25.97-13.34-39.28-19.64-13.33-6.28-25.14-14.13-39.28-19.64-14.14-5.5-23.62-15.66-39.35-19.56-15.74-3.9-8.74,25.62-5.34,37.6,3.41,11.97,8.92,31.25,15.45,43.47,6.52,12.22,14.73,23.67,24.58,34.34,9.83,10.68,18.43,20.28,32.52,26.4,14.07,6.13,34.54,4.63,49.2-.1-4.22,11.14-15.87,18.43-24.2,27.71s-17.23,16.61-25.95,25.95-18.01,15.98-24.3,27.61c-6.28,11.63,5.39,29.33,15.42,33.88,10.03,4.55,24.97,21.53,32.39,8.32,7.41-13.23.28-30.97,8.4-43.5,2.22,3.98,5.46,34.69,13.68,26.3,8.21-8.4,7.22-19.68,1.66-31.82-5.58-12.12-1.5-22.29,14.1-19.77,15.59,2.51,24.23-4.39,37.88-4.21,13.65.17,20.17-6.83,32.29-9.79,3.07,11.53,15.84,14.06-.42,23.43-16.27,9.36-31.37,25.66-48.68,32.69,10.94-11.73,29.18-17.44,37.88-30.86-16.03,5.64-28.15,20.75-43.49,28.06,2.2,5.58,1.57,9.72,2.81,15.43-15.95,4.5-2.93,20.48,5.61,7.01,17.63,4.38,31.4-16.89,47.37-25.57,15.98-8.68,29.78-23.31,45.63-32.92,15.87-9.6,30.47-23.58,37.46-41.1-23.27,2.41-41.12,16.38-60.32,28.06-1.08-6.37-6.23-10.84-8.42-16.83,26.29-22.25,30.01-59.89,19.54-91.08-10.47-31.2-3.35-71.29,30.96-82.86M223.2,82.98c8,2.61,2.79,17.39-5.61,14.03-8.4-3.38-3.83-17.1,5.61-14.03M220.39,251.31c2.1,6.03,6.97,10.69,8.42,16.83-2.6,1.36-5.95,2.51-7.01,5.61-3.8-5.44-8.15-11.53-9.82-18.24,3.73.67,4.66-4.95,8.42-4.21Z"/>
      <path class="cls-1" d="M108.17,78.77c-16.4-4.15-13.28,25.35-5.96,34.02s22.61,9.88,31.1,18c8.49,8.11,30.08,6.2,28.13-7.08-1.94-13.3-17.23-17.23-25.56-23.54-8.32-6.33-18.38-19.02-27.71-21.39Z"/>
    </g>
    <g>
      <path class="cls-1" d="M408.79,228.93c-12.74-7.55-22.36-18.06-28.86-31.5-6.5-13.44-9.75-29.04-9.75-46.79,0-19.68,3.95-36.15,11.86-49.42,7.91-13.27,18.41-23.11,31.5-29.52,13.09-6.41,27.63-9.62,43.63-9.62,18.27,0,33.78,3.78,46.53,11.33,12.74,7.56,22.32,18.06,28.73,31.5,6.41,13.44,9.62,29.04,9.62,46.79,0,19.68-3.91,36.16-11.73,49.42-7.82,13.27-18.28,23.11-31.37,29.52-13.09,6.41-27.64,9.62-43.63,9.62-18.28,0-33.79-3.78-46.53-11.33ZM481.81,202.7c7.29-4.65,12.74-11.33,16.34-20.03,3.6-8.7,5.4-18.93,5.4-30.71,0-18.62-3.95-33.17-11.86-43.63-7.91-10.45-19.42-15.68-34.53-15.68s-27.86,5.14-36.11,15.42c-8.26,10.28-12.39,24.38-12.39,42.31s3.95,33.17,11.86,43.63c7.91,10.46,19.51,15.68,34.79,15.68,10.37,0,19.2-2.33,26.49-6.99Z"/>
      <path class="cls-1" d="M670.91,123.09c6.17,6.06,9.26,14.89,9.26,26.49v86.99h-35.59v-76.44c0-4.92-.49-8.74-1.47-11.47-.98-2.72-2.62-4.7-4.94-5.93-2.31-1.23-5.61-1.85-9.88-1.85-7.12,0-15.49,2.81-25.1,8.44v87.25h-35.59v-117.83l35.59-3.43v11.6c6.52-4.04,13.09-7.2,19.7-9.49,6.61-2.28,13.45-3.43,20.5-3.43,12.17,0,21.34,3.03,27.51,9.09Z"/>
      <path class="cls-1" d="M810.91,72.88c10.02,4.74,17.48,11.2,22.41,19.37,4.92,8.17,7.38,17.62,7.38,28.34,0,11.43-2.58,21.57-7.74,30.45-5.16,8.88-12.94,15.82-23.34,20.82-10.4,5.01-23.07,7.51-38,7.51h-21.87v57.2h-36.38V65.76h59.84c15.11,0,27.68,2.37,37.69,7.12ZM793.33,143.13c5.92-4.13,8.88-11.29,8.88-21.48,0-8.61-2.65-15.07-7.94-19.37-5.29-4.3-12.69-6.46-22.19-6.46h-22.33v53.51h18.29c10.94,0,19.37-2.06,25.29-6.19Z"/>
      <path class="cls-1" d="M894.86,228.93c-12.74-7.55-22.36-18.06-28.86-31.5-6.5-13.44-9.75-29.04-9.75-46.79,0-19.68,3.95-36.15,11.86-49.42,7.91-13.27,18.41-23.11,31.5-29.52,13.09-6.41,27.63-9.62,43.63-9.62,18.27,0,33.78,3.78,46.53,11.33,12.74,7.56,22.32,18.06,28.73,31.5,6.41,13.44,9.62,29.04,9.62,46.79,0,19.68-3.91,36.16-11.73,49.42-7.82,13.27-18.28,23.11-31.37,29.52-13.09,6.41-27.64,9.62-43.63,9.62-18.28,0-33.79-3.78-46.53-11.33ZM967.88,202.7c7.29-4.65,12.74-11.33,16.34-20.03,3.6-8.7,5.4-18.93,5.4-30.71,0-18.62-3.95-33.17-11.86-43.63-7.91-10.45-19.42-15.68-34.53-15.68s-27.86,5.14-36.11,15.42c-8.26,10.28-12.39,24.38-12.39,42.31s3.95,33.17,11.86,43.63c7.91,10.46,19.51,15.68,34.79,15.68,10.37,0,19.2-2.33,26.49-6.99Z"/>
      <path class="cls-1" d="M1042.87,219.7l16.87-26.1c16.34,10.37,32.33,15.55,47.97,15.55,10.02,0,17.88-1.58,23.59-4.74,5.71-3.16,8.57-7.91,8.57-14.23,0-3.86-.92-7.07-2.77-9.62-1.84-2.55-5.1-5.01-9.75-7.38-4.66-2.37-11.64-5.4-20.96-9.09l-6.06-2.37c-11.25-4.39-20.3-8.61-27.15-12.65-6.85-4.04-12.3-9.23-16.34-15.55-4.04-6.33-6.06-14.32-6.06-23.99,0-10.72,3.07-19.64,9.23-26.76,6.15-7.12,14.06-12.34,23.72-15.68,9.66-3.34,19.94-5.01,30.84-5.01,9.84,0,19.99,1.63,30.45,4.88,10.45,3.25,20.43,8.04,29.92,14.37l-17.03,25.83c-8.39-5.09-15.81-8.79-22.27-11.07-6.46-2.28-13.45-3.43-20.96-3.43-8.39,0-14.72,1.41-19,4.22-4.28,2.81-6.42,6.59-6.42,11.33,0,2.99.87,5.67,2.62,8.04,1.75,2.37,4.89,4.75,9.43,7.12,4.54,2.37,11.1,5.14,19.66,8.3l5.77,2.11c11.18,4.22,20.22,8.17,27.12,11.86,6.9,3.69,12.71,8.96,17.43,15.82,4.72,6.85,7.08,15.73,7.08,26.62s-2.99,21.05-8.96,28.86c-5.98,7.82-14.1,13.67-24.38,17.53s-21.92,5.8-34.93,5.8c-26.36,0-48.77-6.85-67.22-20.56Z"/>
    </g>
    <g>
      <path class="cls-1" d="M534.77,338.75l4.61-7.13c4.46,2.83,8.83,4.25,13.1,4.25,2.74,0,4.88-.43,6.44-1.3,1.56-.86,2.34-2.16,2.34-3.89,0-1.06-.25-1.93-.76-2.63-.5-.7-1.39-1.37-2.66-2.02-1.27-.65-3.18-1.48-5.72-2.48l-1.66-.65c-3.07-1.2-5.54-2.35-7.42-3.46-1.87-1.1-3.36-2.52-4.46-4.25s-1.66-3.91-1.66-6.55c0-2.93.84-5.36,2.52-7.31,1.68-1.94,3.84-3.37,6.48-4.28,2.64-.91,5.45-1.37,8.42-1.37,2.69,0,5.46.44,8.32,1.33,2.86.89,5.58,2.2,8.17,3.92l-4.65,7.06c-2.29-1.39-4.32-2.4-6.08-3.02-1.76-.62-3.67-.94-5.72-.94-2.29,0-4.02.38-5.19,1.15-1.17.77-1.75,1.8-1.75,3.1,0,.82.24,1.55.72,2.2.48.65,1.33,1.3,2.58,1.94,1.24.65,3.03,1.4,5.37,2.27l1.58.58c3.05,1.15,5.52,2.23,7.41,3.24,1.88,1.01,3.47,2.45,4.76,4.32,1.29,1.87,1.93,4.3,1.93,7.27s-.82,5.75-2.45,7.88c-1.63,2.14-3.85,3.73-6.66,4.79-2.81,1.06-5.99,1.58-9.54,1.58-7.2,0-13.32-1.87-18.36-5.62Z"/>
      <path class="cls-1" d="M606.62,312.32c1.69,1.63,2.53,4.03,2.53,7.2v23.83h-9.72v-20.88c0-1.34-.13-2.39-.4-3.13-.27-.74-.72-1.28-1.35-1.62-.63-.34-1.53-.5-2.7-.5-2.09,0-4.35.7-6.78,2.09v24.05h-9.72v-49.54l9.72-.94v20.09c3.37-2.06,7.01-3.1,10.91-3.1,3.32,0,5.83.82,7.51,2.45Z"/>
      <path class="cls-1" d="M645.94,329.24h-20.74c.29,2.69,1.18,4.67,2.66,5.94,1.49,1.27,3.26,1.91,5.33,1.91,1.54,0,3.02-.22,4.46-.65,1.44-.43,2.98-1.13,4.61-2.09l3.31,5.9c-1.73,1.3-3.72,2.3-5.98,3.02-2.26.72-4.71,1.08-7.34,1.08-3.17,0-6.01-.58-8.53-1.73-2.52-1.15-4.54-2.99-6.05-5.51-1.51-2.52-2.27-5.77-2.27-9.76,0-3.65.64-6.79,1.91-9.43,1.27-2.64,3.12-4.64,5.54-6.01,2.42-1.37,5.29-2.05,8.6-2.05s5.87.62,8.1,1.87c2.23,1.25,3.9,2.95,5,5.11,1.1,2.16,1.66,4.61,1.66,7.34,0,.96-.1,2.64-.29,5.04ZM627.53,318.05c-.99,1.03-1.67,2.65-2.04,4.86h11.02v-.22c0-2.21-.46-3.79-1.39-4.75-.92-.96-2.15-1.44-3.67-1.44-1.62,0-2.92.52-3.91,1.55Z"/>
      <path class="cls-1" d="M675.45,310.52l-1.45,9.86c-.77-.29-1.47-.5-2.1-.65-.63-.14-1.35-.22-2.17-.22-1.26,0-2.48.3-3.66.9-1.18.6-2.35,1.67-3.51,3.2v19.73h-9.72v-32.18l9.72-.94v4.54c2.41-3.26,5.41-4.9,8.98-4.9,1.4,0,2.7.22,3.91.65Z"/>
      <path class="cls-1" d="M709.99,314.05c2.12,2.78,3.19,6.98,3.19,12.6,0,4.32-.9,7.8-2.7,10.44-1.8,2.64-4.12,4.51-6.95,5.62-2.83,1.1-5.93,1.66-9.29,1.66-1.73,0-3.82-.14-6.26-.43-2.45-.29-4.92-.77-7.42-1.44v-48.67l9.72-.94v19.94c3.29-1.97,6.59-2.95,9.93-2.95,4.4,0,7.66,1.39,9.78,4.18ZM700.59,334.53c1.67-1.75,2.51-4.43,2.51-8.03,0-2.3-.2-4.13-.58-5.47-.39-1.34-1.03-2.32-1.93-2.92-.9-.6-2.12-.9-3.68-.9-1.89,0-4.1.65-6.63,1.94v17.71c.97.19,2.09.29,3.35.29,2.96,0,5.28-.88,6.96-2.63Z"/>
      <path class="cls-1" d="M721.46,305.3c-.96-.55-1.73-1.28-2.3-2.2-.58-.91-.86-1.92-.86-3.02s.29-2.12.86-3.06,1.34-1.68,2.3-2.23c.96-.55,1.99-.83,3.1-.83s2.22.28,3.2.83c.98.55,1.76,1.3,2.34,2.23s.86,1.96.86,3.06-.29,2.11-.86,3.02c-.58.91-1.36,1.65-2.34,2.2-.98.55-2.05.83-3.2.83s-2.14-.28-3.1-.83ZM719.88,343.35v-32.18l9.72-.94v33.12h-9.72Z"/>
      <path class="cls-1" d="M784.85,312.36c1.61,1.66,2.42,4.04,2.42,7.16v23.83h-9.72v-20.88c0-1.92-.28-3.28-.84-4.07-.56-.79-1.5-1.19-2.81-1.19-1.75,0-3.85.7-6.28,2.09v24.05h-9.72v-20.88c0-1.92-.28-3.28-.83-4.07-.56-.79-1.49-1.19-2.79-1.19-1.89,0-3.99.7-6.31,2.09v24.05h-9.72v-32.18l9.72-.94v2.81c3.31-2.11,6.74-3.17,10.3-3.17s6.26,1.2,7.85,3.6c1.93-1.15,3.85-2.04,5.78-2.66,1.93-.62,3.93-.94,6-.94,3.03,0,5.36.83,6.97,2.48Z"/>
      <path class="cls-1" d="M824.06,329.24h-20.74c.29,2.69,1.18,4.67,2.66,5.94,1.49,1.27,3.26,1.91,5.33,1.91,1.54,0,3.02-.22,4.46-.65,1.44-.43,2.98-1.13,4.61-2.09l3.31,5.9c-1.73,1.3-3.72,2.3-5.98,3.02-2.26.72-4.71,1.08-7.34,1.08-3.17,0-6.01-.58-8.53-1.73-2.52-1.15-4.54-2.99-6.05-5.51-1.51-2.52-2.27-5.77-2.27-9.76,0-3.65.64-6.79,1.91-9.43,1.27-2.64,3.12-4.64,5.54-6.01,2.42-1.37,5.29-2.05,8.6-2.05s5.87.62,8.1,1.87c2.23,1.25,3.9,2.95,5,5.11,1.1,2.16,1.66,4.61,1.66,7.34,0,.96-.1,2.64-.29,5.04ZM805.66,318.05c-.99,1.03-1.67,2.65-2.04,4.86h11.02v-.22c0-2.21-.46-3.79-1.39-4.75-.92-.96-2.15-1.44-3.67-1.44-1.62,0-2.92.52-3.91,1.55Z"/>
      <path class="cls-1" d="M879.14,304.98h-21.24v11.66h18.36l-1.17,8.21h-17.19v18.5h-9.94v-46.66h31.18v8.28Z"/>
      <path class="cls-1" d="M886.99,305.3c-.96-.55-1.73-1.28-2.3-2.2-.58-.91-.86-1.92-.86-3.02s.29-2.12.86-3.06,1.34-1.68,2.3-2.23c.96-.55,1.99-.83,3.1-.83s2.22.28,3.2.83c.98.55,1.76,1.3,2.34,2.23s.86,1.96.86,3.06-.29,2.11-.86,3.02c-.58.91-1.36,1.65-2.34,2.2-.98.55-2.05.83-3.2.83s-2.14-.28-3.1-.83ZM885.4,343.35v-32.18l9.72-.94v33.12h-9.72Z"/>
      <path class="cls-1" d="M907.04,343.25c-2.42-.74-4.69-1.86-6.8-3.35l4.12-6.26c1.78,1.3,3.59,2.22,5.42,2.77,1.83.55,3.59.83,5.28.83,1.59,0,2.76-.24,3.5-.72.75-.48,1.12-1.13,1.12-1.94,0-.53-.15-1-.43-1.4-.29-.41-.88-.82-1.77-1.22-.89-.41-2.21-.85-3.94-1.33l-2.1-.58c-3.47-.96-5.96-2.21-7.48-3.74-1.52-1.54-2.28-3.62-2.28-6.26,0-2.02.55-3.79,1.66-5.33,1.1-1.54,2.66-2.72,4.68-3.56,2.02-.84,4.32-1.26,6.91-1.26,4.9,0,9.33,1.18,13.32,3.53l-3.79,6.26c-1.99-1.01-3.67-1.7-5.03-2.09-1.36-.38-2.82-.58-4.38-.58-1.22,0-2.13.22-2.74.65s-.91.98-.91,1.66c0,.48.12.88.36,1.19.24.31.69.6,1.35.86.66.26,1.69.59,3.1.97l2.41.65c3.74.96,6.47,2.3,8.2,4.03,1.72,1.73,2.59,3.91,2.59,6.55,0,2.06-.52,3.91-1.55,5.54-1.03,1.63-2.62,2.92-4.75,3.85-2.14.94-4.74,1.4-7.81,1.4s-5.82-.37-8.24-1.12Z"/>
      <path class="cls-1" d="M955.24,325.79l12.53,16.99v.58h-11.48l-11.34-16.13v16.13h-9.72v-49.54l9.72-.94v32.62l11.77-14.54h10.4v.5l-11.88,14.33Z"/>
      <path class="cls-1" d="M996.53,312.36c2.14,1.66,3.2,4.38,3.2,8.17v22.82h-8.29l-.79-2.52c-1.78,1.3-3.55,2.21-5.31,2.74-1.76.53-3.6.79-5.53.79-2.02,0-3.8-.38-5.35-1.15s-2.73-1.84-3.58-3.2c-.84-1.37-1.26-2.94-1.26-4.72,0-3.79,1.88-6.68,5.63-8.68,3.76-1.99,8.67-3.11,14.74-3.35v-.79c0-1.34-.13-2.4-.4-3.17-.27-.77-.73-1.33-1.41-1.69-.67-.36-1.61-.54-2.82-.54-3.04,0-6.48,1.22-10.33,3.67l-3.76-5.9c2.59-1.68,5.12-2.93,7.6-3.74,2.47-.82,5.17-1.22,8.1-1.22,4.22,0,7.4.83,9.54,2.48ZM980.67,336.48c.63.55,1.56.83,2.77.83,2,0,4.19-.65,6.57-1.94v-6.26c-3.55.19-6.16.74-7.81,1.66-1.66.91-2.48,2.02-2.48,3.31,0,1.06.32,1.86.95,2.41Z"/>
      <path class="cls-1" d="M1008.09,343.35v-49.54l9.72-.94v50.47h-9.72Z"/>
      <path class="cls-1" d="M1028.1,305.3c-.96-.55-1.73-1.28-2.3-2.2-.58-.91-.86-1.92-.86-3.02s.29-2.12.86-3.06,1.34-1.68,2.3-2.23c.96-.55,1.99-.83,3.1-.83s2.22.28,3.2.83c.98.55,1.76,1.3,2.34,2.23s.86,1.96.86,3.06-.29,2.11-.86,3.02c-.58.91-1.36,1.65-2.34,2.2-.98.55-2.05.83-3.2.83s-2.14-.28-3.1-.83ZM1026.52,343.35v-32.18l9.72-.94v33.12h-9.72Z"/>
      <path class="cls-1" d="M1070.8,310.95v4.32l-15.12,19.94h14.9v8.14h-28.73v-4.46l15.26-19.8h-14.18l1.08-8.14h26.78Z"/>
      <path class="cls-1" d="M1078.5,305.3c-.96-.55-1.73-1.28-2.3-2.2-.58-.91-.86-1.92-.86-3.02s.29-2.12.86-3.06,1.34-1.68,2.3-2.23c.96-.55,1.99-.83,3.1-.83s2.22.28,3.2.83c.98.55,1.76,1.3,2.34,2.23s.86,1.96.86,3.06-.29,2.11-.86,3.02c-.58.91-1.36,1.65-2.34,2.2-.98.55-2.05.83-3.2.83s-2.14-.28-3.1-.83ZM1076.92,343.35v-32.18l9.72-.94v33.12h-9.72Z"/>
      <path class="cls-1" d="M1141.89,312.36c1.61,1.66,2.42,4.04,2.42,7.16v23.83h-9.72v-20.88c0-1.92-.28-3.28-.84-4.07-.56-.79-1.5-1.19-2.81-1.19-1.75,0-3.85.7-6.28,2.09v24.05h-9.72v-20.88c0-1.92-.28-3.28-.83-4.07-.56-.79-1.49-1.19-2.79-1.19-1.89,0-3.99.7-6.31,2.09v24.05h-9.72v-32.18l9.72-.94v2.81c3.31-2.11,6.74-3.17,10.3-3.17s6.26,1.2,7.85,3.6c1.93-1.15,3.85-2.04,5.78-2.66,1.93-.62,3.93-.94,6-.94,3.03,0,5.36.83,6.97,2.48Z"/>
      <path class="cls-1" d="M1154.25,305.3c-.96-.55-1.73-1.28-2.3-2.2-.58-.91-.86-1.92-.86-3.02s.29-2.12.86-3.06,1.34-1.68,2.3-2.23c.96-.55,1.99-.83,3.1-.83s2.22.28,3.2.83c.98.55,1.76,1.3,2.34,2.23s.86,1.96.86,3.06-.29,2.11-.86,3.02c-.58.91-1.36,1.65-2.34,2.2-.98.55-2.05.83-3.2.83s-2.14-.28-3.1-.83ZM1152.66,343.35v-32.18l9.72-.94v33.12h-9.72Z"/>
    </g>
  </g>
</svg>