<?xml version="1.0" encoding="UTF-8"?>
<svg id="Layer_2" data-name="Layer 2" xmlns="http://www.w3.org/2000/svg" viewBox="0 0 1314.1 339.16">
  <defs>
    <style>
      .cls-1 {
        fill: #010101;
      }

      .cls-1, .cls-2 {
        stroke-width: 0px;
      }

      .cls-3 {
        stroke: #010101;
      }

      .cls-3, .cls-4 {
        fill: none;
        stroke-width: .3px;
      }

      .cls-2 {
        fill: #231f20;
      }

      .cls-4 {
        stroke: #fff;
      }
    </style>
  </defs>
  <g id="Layer_1-2" data-name="Layer 1">
    <g>
      <path class="cls-3" d="M284.97,44.67c-2.53-14.39,7.6-39.32-11.45-43.83-35.84-.78-72.85-1.09-108.67.16-18.47,4.87-8.33,29.45-10.93,43.68h-60.75c-16.09,2.33-41.66-7.43-48.51,12.24-2.18,15.45,16.44,23.42,24.79,34.69,19.45,20.87,40.5,40.65,59.89,61.6-38.54.19-76.42,1.02-115.3.73-18.24-.74-18.76,32.11-.1,30.72,38.27,1.11,77,.64,115.4,1.32-19.39,20.89-40.43,40.76-59.89,61.6-8.72,11.46-26.63,19.2-25.38,35.27,6.88,19.83,32.98,8.81,49.1,11.65h60.75c2.53,14.39-7.6,39.32,11.45,43.83,35.84.78,72.85,1.09,108.67-.16,18.44-4.95,8.35-29.4,10.93-43.68h60.75c16.16-2.81,42.06,8.1,49.14-11.6,1.44-16.16-16.76-23.76-25.43-35.32-19.47-20.86-40.46-40.67-59.89-61.6,38.62-.72,77.55-.14,116.04-1.37,18.53.6,16.97-32.17-1.37-30.72-38.67.42-76.34-.54-114.67-.68,19.35-20.91,40.46-40.74,59.89-61.6,8.22-11.33,27.28-19.02,24.28-34.86-7.48-19.35-32.41-9.83-48.68-12.07h-60.07M273.36,5.76c8.97,2.98,5.53,14.26,6.14,21.84,1.43,35.06.06,72.92,1.37,108.53,3.58,7.44,10.54-5.6,14.85-8.36,23.98-22.99,48.05-47.09,72.01-70.64,4-5.92,12.79-10.44,17.75-3.07,11.02,12.47-11.27,22.02-17.75,31.74-18.28,19.53-38.16,38.07-56.31,57.68-2.78,4.77-14.91,9.88-9.33,15.13,37.93-.36,75.33,1.15,113.25.74,7.76-1.26,19.81.29,17.75,10.92,1.06,10.33-11.11,10.27-18.43,9.56-37.84-.29-75.31.88-113.08.91-4.1,5.89,7.26,10.32,10.18,15.3,23.2,24.22,47.04,48.05,70.64,72.01,5.87,4.1,9.94,12.49,2.73,17.41-12.78,10.89-22.24-11.58-32.08-18.09-19.38-18.16-38.26-38.3-57.68-56.31-4.03-2.81-12.06-16.27-14.5-7.34-1.28,37.34-.08,75.29-1.37,112.62,1.71,8.13-1.14,19.3-11.6,17.06-10.25-.34-8.22-12.4-8.19-19.79-1.54-37.21.23-75.25-1.59-112.4-6.44-2.36-10.46,7.9-15.64,11.21-24.23,23.18-48.05,47.02-72.01,70.64-4.09,6.59-13.38,8.3-17.75,1.02-6.46-5.87.39-13.13,5.46-17.41,23.62-24.01,47.29-47.68,70.64-72.01,2.91-3.9,16.22-12.18,6.31-14.16-37.94.46-75.36-1.16-113.3-.68-8.78,2.09-18.44-2.78-15.7-12.97,1.09-9.88,13.15-7.26,20.48-7.51,28.63.51,56.79-.8,85.32-.68,8.79-.78,18.71,1.57,26.79-1.19.23-6.3-8.67-10.15-12.29-15.36-23.33-24.36-46.95-48-70.64-72.01-6.49-4.23-7.79-13.01-.68-17.41,13.36-8.05,21.89,13.53,32.08,20.14,19.56,18.22,38.07,38.16,57.68,56.31,3.59,3.72,13.89,16.23,13.48,4.27,1.35-37.32.07-75.29,1.37-112.62-2.48-9.23,3.84-17.57,13.65-15.02Z"/>
      <path class="cls-4" d="M273.36,5.76c-9.81-2.55-16.13,5.79-13.65,15.02-1.3,37.33-.01,75.31-1.37,112.62.41,11.97-9.89-.55-13.48-4.27-19.61-18.16-38.11-38.09-57.68-56.31-10.19-6.61-18.72-28.18-32.08-20.14-7.11,4.4-5.81,13.17.68,17.41,23.7,24.01,47.32,47.65,70.64,72.01,3.62,5.21,12.51,9.06,12.29,15.36-8.08,2.76-18,.42-26.79,1.19-28.53-.12-56.69,1.19-85.32.68-7.32.25-19.38-2.38-20.48,7.51-2.74,10.18,6.92,15.06,15.7,12.97,37.94-.48,75.36,1.14,113.3.68,9.9,1.98-3.4,10.26-6.31,14.16-23.36,24.33-47.03,48-70.64,72.01-5.07,4.28-11.92,11.54-5.46,17.41,4.37,7.28,13.66,5.57,17.75-1.02,23.96-23.62,47.78-47.47,72.01-70.64,5.19-3.31,9.2-13.57,15.64-11.21,1.82,37.15.05,75.18,1.59,112.4-.03,7.4-2.06,19.45,8.19,19.79,10.46,2.23,13.31-8.93,11.6-17.06,1.28-37.34.09-75.29,1.37-112.62,2.44-8.93,10.48,4.53,14.5,7.34,19.42,18.01,38.29,38.15,57.68,56.31,9.84,6.5,19.3,28.97,32.08,18.09,7.21-4.91,3.14-13.3-2.73-17.41-23.6-23.96-47.44-47.79-70.64-72.01-2.93-4.98-14.28-9.41-10.18-15.3,37.77-.03,75.24-1.19,113.08-.91,7.32.72,19.49.77,18.43-9.56,2.07-10.63-9.99-12.18-17.75-10.92-37.92.41-75.32-1.1-113.25-.74-5.58-5.25,6.55-10.36,9.33-15.13,18.15-19.61,38.03-38.14,56.31-57.68,6.48-9.72,28.76-19.27,17.75-31.74-4.96-7.37-13.75-2.85-17.75,3.07-23.96,23.56-48.03,47.66-72.01,70.64-4.31,2.76-11.27,15.8-14.85,8.36-1.3-35.61.06-73.46-1.37-108.53-.61-7.58,2.83-18.87-6.14-21.84Z"/>
      <path class="cls-1" d="M284.97,44.67c-2.53-14.39,7.6-39.32-11.45-43.83-35.84-.78-72.85-1.09-108.67.16-18.47,4.87-8.33,29.45-10.93,43.68h-60.75c-16.09,2.33-41.66-7.43-48.51,12.24-2.18,15.45,16.44,23.42,24.79,34.69,19.45,20.87,40.5,40.65,59.89,61.6-38.54.19-76.42,1.02-115.3.73-18.24-.74-18.76,32.11-.1,30.72,38.27,1.11,77,.64,115.4,1.32-19.39,20.89-40.43,40.76-59.89,61.6-8.72,11.46-26.63,19.2-25.38,35.27,6.88,19.83,32.98,8.81,49.1,11.65h60.75c2.53,14.39-7.6,39.32,11.45,43.83,35.84.78,72.85,1.09,108.67-.16,18.44-4.95,8.35-29.4,10.93-43.68h60.75c16.16-2.81,42.06,8.1,49.14-11.6,1.44-16.16-16.76-23.76-25.43-35.32-19.47-20.86-40.46-40.67-59.89-61.6,38.62-.72,77.55-.14,116.04-1.37,18.53.6,16.97-32.17-1.37-30.72-38.67.42-76.34-.54-114.67-.68,19.35-20.91,40.46-40.74,59.89-61.6,8.22-11.33,27.28-19.02,24.28-34.86-7.48-19.35-32.41-9.83-48.68-12.07h-60.07M273.36,5.76c8.97,2.98,5.53,14.26,6.14,21.84,1.43,35.06.06,72.92,1.37,108.53,3.58,7.44,10.54-5.6,14.85-8.36,23.98-22.99,48.05-47.09,72.01-70.64,4-5.92,12.79-10.44,17.75-3.07,11.02,12.47-11.27,22.02-17.75,31.74-18.28,19.53-38.16,38.07-56.31,57.68-2.78,4.77-14.91,9.88-9.33,15.13,37.93-.36,75.33,1.15,113.25.74,7.76-1.26,19.81.29,17.75,10.92,1.06,10.33-11.11,10.27-18.43,9.56-37.84-.29-75.31.88-113.08.91-4.1,5.89,7.26,10.32,10.18,15.3,23.2,24.22,47.04,48.05,70.64,72.01,5.87,4.1,9.94,12.49,2.73,17.41-12.78,10.89-22.24-11.58-32.08-18.09-19.38-18.16-38.26-38.3-57.68-56.31-4.03-2.81-12.06-16.27-14.5-7.34-1.28,37.34-.08,75.29-1.37,112.62,1.71,8.13-1.14,19.3-11.6,17.06-10.25-.34-8.22-12.4-8.19-19.79-1.54-37.21.23-75.25-1.59-112.4-6.44-2.36-10.46,7.9-15.64,11.21-24.23,23.18-48.05,47.02-72.01,70.64-4.09,6.59-13.38,8.3-17.75,1.02-6.46-5.87.39-13.13,5.46-17.41,23.62-24.01,47.29-47.68,70.64-72.01,2.91-3.9,16.22-12.18,6.31-14.16-37.94.46-75.36-1.16-113.3-.68-8.78,2.09-18.44-2.78-15.7-12.97,1.09-9.88,13.15-7.26,20.48-7.51,28.63.51,56.79-.8,85.32-.68,8.79-.78,18.71,1.57,26.79-1.19.23-6.3-8.67-10.15-12.29-15.36-23.33-24.36-46.95-48-70.64-72.01-6.49-4.23-7.79-13.01-.68-17.41,13.36-8.05,21.89,13.53,32.08,20.14,19.56,18.22,38.07,38.16,57.68,56.31,3.59,3.72,13.89,16.23,13.48,4.27,1.35-37.32.07-75.29,1.37-112.62-2.48-9.23,3.84-17.57,13.65-15.02Z"/>
    </g>
    <g>
      <path class="cls-2" d="M563.25,56.19h47.04l70.4,198.98h-45.09l-13.13-40.9h-73.28l-13.49,40.9h-43.49l71.03-198.98ZM560.51,179.97h50.96l-25.14-78.3-25.82,78.3Z"/>
      <path class="cls-2" d="M742.45,90.47h-39.01v-35.5h39.01v35.5ZM703.43,108.02h39.01v147.14h-39.01V108.02Z"/>
      <path class="cls-2" d="M809.54,208.19c.81,6.84,2.58,11.7,5.29,14.58,4.79,5.13,13.65,7.69,26.58,7.69,7.6,0,13.63-1.12,18.11-3.37,4.48-2.25,6.71-5.62,6.71-10.12s-1.8-7.6-5.41-9.85c-3.61-2.25-17.02-6.12-40.25-11.61-16.72-4.14-28.5-9.31-35.34-15.52-6.84-6.12-10.26-14.94-10.26-26.46,0-13.59,5.34-25.26,16.03-35.03,10.69-9.76,25.73-14.65,45.12-14.65s33.39,3.67,44.98,11c11.59,7.34,18.24,20,19.96,38h-38.47c-.54-4.95-1.94-8.86-4.2-11.74-4.24-5.22-11.46-7.83-21.66-7.83-8.39,0-14.37,1.31-17.93,3.91-3.56,2.61-5.35,5.67-5.35,9.18,0,4.41,1.89,7.61,5.69,9.58,3.79,2.07,17.18,5.63,40.17,10.66,15.33,3.6,26.82,9.04,34.46,16.33,7.56,7.38,11.34,16.6,11.34,27.67,0,14.58-5.43,26.48-16.3,35.71-10.87,9.22-27.66,13.84-50.38,13.84s-40.29-4.88-51.33-14.65c-11.05-9.76-16.57-22.21-16.57-37.33h39.01Z"/>
      <path class="cls-2" d="M972.74,255.16h-38.47V56.19h38.47v198.98Z"/>
      <path class="cls-2" d="M1132.98,237.16c-12.42,15.33-31.27,22.99-56.56,22.99s-44.14-7.67-56.56-22.99c-12.42-15.33-18.63-33.79-18.63-55.37s6.21-39.61,18.63-55.16c12.42-15.56,31.27-23.33,56.56-23.33s44.14,7.78,56.56,23.33,18.63,33.94,18.63,55.16-6.21,40.04-18.63,55.37ZM1102.2,215.9c6.03-8,9.04-19.36,9.04-34.1s-3.02-26.08-9.04-34.03c-6.03-7.95-14.67-11.93-25.92-11.93s-19.91,3.98-25.99,11.93c-6.07,7.95-9.11,19.3-9.11,34.03s3.04,26.11,9.11,34.1c6.08,8,14.74,12,25.99,12s19.89-4,25.92-12Z"/>
      <path class="cls-2" d="M1297.8,116.46c9.63,7.96,14.45,21.17,14.45,39.62v99.08h-39.42v-89.5c0-7.74-1.03-13.68-3.08-17.82-3.75-7.56-10.9-11.34-21.44-11.34-12.96,0-21.84,5.53-26.67,16.6-2.5,5.85-3.75,13.32-3.75,22.41v79.65h-38.47V108.29h37.26v21.46c4.93-7.56,9.59-13,13.98-16.33,7.88-5.94,17.88-8.91,29.98-8.91,15.14,0,27.53,3.98,37.17,11.95Z"/>
    </g>
    <g>
      <path class="cls-2" d="M817.09,295.81c1.11,1.54,1.66,3.38,1.66,5.53s-.56,3.99-1.68,5.33c-.62.75-1.55,1.44-2.76,2.06,1.85.67,3.25,1.74,4.19,3.2.94,1.46,1.41,3.23,1.41,5.31s-.54,4.07-1.61,5.78c-.68,1.13-1.54,2.08-2.57,2.85-1.16.88-2.52,1.49-4.09,1.82-1.57.33-3.28.49-5.12.49h-16.33v-36.23h17.51c4.42.07,7.55,1.35,9.39,3.86ZM797.42,298.24v7.99h8.81c1.57,0,2.85-.3,3.83-.9.98-.6,1.47-1.66,1.47-3.18,0-1.69-.65-2.8-1.95-3.34-1.12-.38-2.55-.57-4.28-.57h-7.88ZM797.42,312.23v9.66h8.8c1.57,0,2.79-.21,3.67-.64,1.59-.79,2.38-2.29,2.38-4.52,0-1.88-.77-3.18-2.31-3.88-.86-.39-2.07-.6-3.62-.61h-8.92Z"/>
      <path class="cls-2" d="M832.84,301.39v16.15c0,1.52.18,2.67.54,3.44.64,1.36,1.88,2.04,3.74,2.04,2.38,0,4.01-.97,4.89-2.9.46-1.05.68-2.43.68-4.15v-14.58h7.1v26.79h-6.81v-3.79c-.07.08-.23.33-.49.74-.26.41-.57.77-.93,1.08-1.09.98-2.15,1.66-3.17,2.02-1.02.36-2.22.54-3.59.54-3.95,0-6.62-1.43-7.99-4.28-.77-1.57-1.15-3.89-1.15-6.96v-16.15h7.18Z"/>
      <path class="cls-2" d="M862.04,319.63c.15,1.25.47,2.13.96,2.65.87.93,2.49,1.4,4.84,1.4,1.38,0,2.48-.2,3.3-.61.81-.41,1.22-1.02,1.22-1.84s-.33-1.38-.98-1.79c-.66-.41-3.1-1.11-7.33-2.11-3.04-.75-5.19-1.7-6.43-2.83-1.25-1.11-1.87-2.72-1.87-4.82,0-2.47.97-4.6,2.92-6.38,1.95-1.78,4.68-2.67,8.22-2.67,3.35,0,6.08.67,8.19,2,2.11,1.34,3.32,3.64,3.63,6.92h-7.01c-.1-.9-.35-1.61-.76-2.14-.77-.95-2.09-1.43-3.94-1.43-1.53,0-2.62.24-3.27.71-.65.48-.97,1.03-.97,1.67,0,.8.34,1.39,1.04,1.75.69.38,3.13,1.02,7.31,1.94,2.79.66,4.88,1.65,6.28,2.97,1.38,1.34,2.07,3.02,2.07,5.04,0,2.65-.99,4.82-2.97,6.5-1.98,1.68-5.04,2.52-9.17,2.52s-7.34-.89-9.35-2.67-3.02-4.04-3.02-6.8h7.1Z"/>
      <path class="cls-2" d="M891.81,298.19h-7.1v-6.46h7.1v6.46ZM884.71,301.39h7.1v26.79h-7.1v-26.79Z"/>
      <path class="cls-2" d="M920.2,302.92c1.75,1.45,2.63,3.86,2.63,7.21v18.04h-7.18v-16.3c0-1.41-.19-2.49-.56-3.24-.68-1.38-1.99-2.06-3.9-2.06-2.36,0-3.98,1.01-4.86,3.02-.46,1.07-.68,2.43-.68,4.08v14.5h-7.01v-26.74h6.78v3.91c.9-1.38,1.75-2.37,2.55-2.97,1.44-1.08,3.26-1.62,5.46-1.62,2.76,0,5.01.73,6.77,2.18Z"/>
      <path class="cls-2" d="M946.81,301.93c1.87.84,3.41,2.16,4.63,3.96,1.1,1.59,1.81,3.44,2.13,5.54.19,1.23.26,3,.23,5.32h-19.51c.11,2.69,1.04,4.57,2.8,5.65,1.07.67,2.36,1.01,3.86,1.01,1.6,0,2.89-.41,3.89-1.23.54-.44,1.02-1.06,1.44-1.84h7.15c-.19,1.59-1.05,3.2-2.6,4.84-2.4,2.61-5.76,3.91-10.08,3.91-3.57,0-6.71-1.1-9.44-3.3-2.73-2.2-4.09-5.77-4.09-10.73,0-4.64,1.23-8.2,3.69-10.68,2.46-2.48,5.65-3.72,9.58-3.72,2.33,0,4.43.42,6.3,1.26ZM936.33,307.98c-.99,1.02-1.61,2.4-1.87,4.15h12.07c-.13-1.86-.75-3.27-1.87-4.23-1.12-.96-2.5-1.44-4.15-1.44-1.8,0-3.19.51-4.18,1.53Z"/>
      <path class="cls-2" d="M962.78,319.63c.15,1.25.47,2.13.96,2.65.87.93,2.49,1.4,4.84,1.4,1.38,0,2.48-.2,3.3-.61.81-.41,1.22-1.02,1.22-1.84s-.33-1.38-.98-1.79c-.66-.41-3.1-1.11-7.33-2.11-3.04-.75-5.19-1.7-6.43-2.83-1.25-1.11-1.87-2.72-1.87-4.82,0-2.47.97-4.6,2.92-6.38,1.95-1.78,4.68-2.67,8.22-2.67,3.35,0,6.08.67,8.19,2,2.11,1.34,3.32,3.64,3.63,6.92h-7.01c-.1-.9-.35-1.61-.76-2.14-.77-.95-2.09-1.43-3.94-1.43-1.53,0-2.62.24-3.27.71-.65.48-.97,1.03-.97,1.67,0,.8.34,1.39,1.04,1.75.69.38,3.13,1.02,7.31,1.94,2.79.66,4.88,1.65,6.28,2.97,1.38,1.34,2.07,3.02,2.07,5.04,0,2.65-.99,4.82-2.97,6.5-1.98,1.68-5.04,2.52-9.17,2.52s-7.34-.89-9.35-2.67-3.02-4.04-3.02-6.8h7.1Z"/>
      <path class="cls-2" d="M990.78,319.63c.15,1.25.47,2.13.96,2.65.87.93,2.49,1.4,4.84,1.4,1.38,0,2.48-.2,3.3-.61.81-.41,1.22-1.02,1.22-1.84s-.33-1.38-.98-1.79c-.66-.41-3.1-1.11-7.33-2.11-3.04-.75-5.19-1.7-6.43-2.83-1.25-1.11-1.87-2.72-1.87-4.82,0-2.47.97-4.6,2.92-6.38,1.95-1.78,4.68-2.67,8.22-2.67,3.35,0,6.08.67,8.19,2,2.11,1.34,3.32,3.64,3.63,6.92h-7.01c-.1-.9-.35-1.61-.76-2.14-.77-.95-2.09-1.43-3.94-1.43-1.53,0-2.62.24-3.27.71-.65.48-.97,1.03-.97,1.67,0,.8.34,1.39,1.04,1.75.69.38,3.13,1.02,7.31,1.94,2.79.66,4.88,1.65,6.28,2.97,1.38,1.34,2.07,3.02,2.07,5.04,0,2.65-.99,4.82-2.97,6.5-1.98,1.68-5.04,2.52-9.17,2.52s-7.34-.89-9.35-2.67-3.02-4.04-3.02-6.8h7.1Z"/>
      <path class="cls-2" d="M1052.22,312.5c-2.12,1.77-5.15,2.65-9.09,2.65h-7.54v13.03h-7.52v-36.23h15.56c3.59,0,6.45.93,8.58,2.8,2.13,1.87,3.2,4.76,3.2,8.68,0,4.28-1.06,7.3-3.18,9.07ZM1046.44,299.45c-.96-.8-2.3-1.2-4.03-1.2h-6.82v10.67h6.82c1.73,0,3.07-.43,4.03-1.3.96-.87,1.44-2.24,1.44-4.13s-.48-3.23-1.44-4.03Z"/>
      <path class="cls-2" d="M1075.79,300.76c.09,0,.29.02.6.04v7.18c-.44-.05-.84-.08-1.18-.1-.34-.02-.62-.02-.83-.02-2.82,0-4.71.92-5.68,2.75-.54,1.03-.81,2.62-.81,4.77v12.81h-7.05v-26.79h6.69v4.67c1.08-1.79,2.02-3.01,2.83-3.66,1.31-1.1,3.02-1.65,5.11-1.65.13,0,.24,0,.33.01Z"/>
      <path class="cls-2" d="M1102.84,324.9c-2.26,2.79-5.69,4.19-10.3,4.19s-8.04-1.4-10.3-4.19-3.39-6.15-3.39-10.08,1.13-7.21,3.39-10.04c2.26-2.83,5.69-4.25,10.3-4.25s8.04,1.42,10.3,4.25c2.26,2.83,3.39,6.18,3.39,10.04s-1.13,7.29-3.39,10.08ZM1097.24,321.03c1.1-1.46,1.65-3.53,1.65-6.21s-.55-4.75-1.65-6.2-2.67-2.17-4.72-2.17-3.62.72-4.73,2.17-1.66,3.51-1.66,6.2.55,4.75,1.66,6.21,2.68,2.18,4.73,2.18,3.62-.73,4.72-2.18Z"/>
      <path class="cls-2" d="M1125.46,301.82c1.26.71,2.29,1.7,3.07,2.96v-12.78h7.1v36.18h-6.81v-3.71c-1,1.59-2.14,2.74-3.42,3.47s-2.87,1.08-4.77,1.08c-3.13,0-5.76-1.27-7.9-3.8-2.14-2.53-3.21-5.78-3.21-9.75,0-4.57,1.05-8.17,3.16-10.79,2.11-2.62,4.92-3.93,8.44-3.93,1.62,0,3.06.36,4.33,1.07ZM1127.18,320.91c1.03-1.47,1.55-3.38,1.55-5.73,0-3.28-.83-5.62-2.48-7.03-1.02-.85-2.2-1.28-3.54-1.28-2.05,0-3.55.77-4.51,2.32-.96,1.55-1.44,3.47-1.44,5.76,0,2.47.49,4.45,1.46,5.94.97,1.48,2.45,2.22,4.44,2.22s3.49-.74,4.52-2.21Z"/>
      <path class="cls-2" d="M1148.98,301.39v16.15c0,1.52.18,2.67.54,3.44.64,1.36,1.88,2.04,3.74,2.04,2.38,0,4.01-.97,4.89-2.9.46-1.05.68-2.43.68-4.15v-14.58h7.1v26.79h-6.81v-3.79c-.07.08-.23.33-.49.74-.26.41-.57.77-.93,1.08-1.09.98-2.15,1.66-3.17,2.02-1.02.36-2.22.54-3.59.54-3.95,0-6.62-1.43-7.99-4.28-.77-1.57-1.15-3.89-1.15-6.96v-16.15h7.18Z"/>
      <path class="cls-2" d="M1188.78,311c-.13-1-.47-1.9-1.01-2.7-.79-1.08-2.01-1.62-3.67-1.62-2.37,0-3.98,1.17-4.85,3.52-.46,1.24-.69,2.89-.69,4.95s.23,3.54.69,4.73c.84,2.23,2.41,3.34,4.73,3.34,1.64,0,2.81-.44,3.5-1.33.69-.89,1.11-2.03,1.26-3.44h7.15c-.17,2.13-.94,4.15-2.31,6.05-2.2,3.06-5.45,4.6-9.77,4.6s-7.49-1.28-9.52-3.83c-2.03-2.56-3.05-5.87-3.05-9.94,0-4.6,1.12-8.17,3.37-10.73,2.25-2.56,5.35-3.83,9.3-3.83,3.36,0,6.11.75,8.25,2.26,2.14,1.51,3.41,4.17,3.8,7.99h-7.18Z"/>
      <path class="cls-2" d="M1197.99,306.62v-4.99h3.74v-7.47h6.93v7.47h4.35v4.99h-4.35v14.16c0,1.1.14,1.78.42,2.05.28.27,1.13.41,2.56.41.21,0,.44,0,.68-.01.24,0,.47-.02.7-.04v5.24l-3.32.12c-3.31.11-5.57-.46-6.78-1.72-.79-.8-1.18-2.04-1.18-3.71v-16.49h-3.74Z"/>
      <path class="cls-2" d="M1224.71,298.19h-7.1v-6.46h7.1v6.46ZM1217.61,301.39h7.1v26.79h-7.1v-26.79Z"/>
      <path class="cls-2" d="M1248,301.39h7.52l-9.68,26.79h-7.39l-9.61-26.79h7.87l5.58,19.76,5.7-19.76Z"/>
      <path class="cls-2" d="M1266.7,298.19h-7.1v-6.46h7.1v6.46ZM1259.59,301.39h7.1v26.79h-7.1v-26.79Z"/>
      <path class="cls-2" d="M1270.73,306.62v-4.99h3.74v-7.47h6.93v7.47h4.35v4.99h-4.35v14.16c0,1.1.14,1.78.42,2.05.28.27,1.13.41,2.56.41.21,0,.44,0,.68-.01.24,0,.47-.02.7-.04v5.24l-3.32.12c-3.31.11-5.57-.46-6.78-1.72-.79-.8-1.18-2.04-1.18-3.71v-16.49h-3.74Z"/>
      <path class="cls-2" d="M1291.3,333.32l.88.05c.69.03,1.34,0,1.97-.07.62-.08,1.15-.27,1.57-.57.41-.28.79-.86,1.14-1.75s.5-1.43.46-1.62l-9.84-27.97h7.79l5.85,19.76,5.53-19.76h7.45l-9.19,26.35c-1.78,5.08-3.18,8.23-4.21,9.45-1.03,1.22-3.1,1.83-6.2,1.83-.62,0-1.12,0-1.5-.01-.38,0-.94-.04-1.7-.09v-5.6Z"/>
    </g>
  </g>
</svg>