<?xml version="1.0" encoding="UTF-8"?>
<svg id="Layer_2" xmlns="http://www.w3.org/2000/svg" viewBox="0 0 1096.44 296.18">
  <defs>
    <style>
      .cls-1 {
        fill: #fff;
      }
    </style>
  </defs>
  <g id="Layer_1-2" data-name="Layer_1">
    <g>
      <path d="M63.55,180.15c-9.43,4.13-17.66,9.71-24,17.8-4.95,6.32-8.23,13.32-8.97,21.45-1.26,13.89,11.36,30.46,25.75,34.56,9.01,2.57,18.08,2.1,27.19.83,23.29-3.24,43.14-14.39,61.65-27.89,12.63-9.21,24.37-19.68,36.12-30.02,6.31-5.56,13.15-8.22,21.5-8.89,18.79-1.51,36.73-5.98,52.22-17.61,13.09-9.83,16.29-24.94,13.01-36.84-.87-3.17-2.88-6.26-5.06-8.78-2.76-3.19-5.7-3.14-9.15-.73-5.48,3.84-10.77,7.99-16.44,11.53-3.71,2.32-7.86,4.07-12,5.54-3.7,1.32-4.81.58-6.1-3.14-1.6-4.6-2.88-9.31-4.5-13.9-.83-2.34-2.58-4.43-3.09-6.81-1.19-5.56-1.99-11.21-2.76-16.85-3.38-24.91-4.46-49.94-3.55-75.06.04-.99-.13-1.99-.08-2.99.16-3-1.33-4.54-3.92-6.05C180.47,4.08,157.53.42,133.86.03c-25.83-.43-50.6,4.59-73.66,16.42-16.76,8.6-31.13,20.51-43.54,34.63-5.42,6.16-10.24,12.86-15.05,19.52-2.4,3.33-2.12,4.75.92,7.56,18.15,16.77,30.23,37.81,41.43,59.37,6.95,13.37,14.22,26.66,19.03,41.05.17.5.36,1,.56,1.57ZM72.34,19.58c13.09-5.97,26.8-9.89,40.99-11.74,20.4-2.66,40.7-1.84,60.45,4.35,7.98,2.5,15.65,5.99,23.4,9.17.81.33,1.73,1.67,1.72,2.53-.04,8.76-.46,17.53-.39,26.29.16,21.31,2.41,42.44,6.03,63.43,1.02,5.91.95,5.99-5.11,6.44-4.37.33-8.76.44-13.18.66-1.29-11.42-2.51-22.48-3.81-33.52-1.68-14.28-3.48-28.55-5.14-42.84-.79-6.83-1.27-13.69-2.12-20.51-.18-1.48-.97-3.48-2.11-4.14-4.43-2.57-9.37-3.38-15.01-3.18,4.69,35.26,9.33,70.15,13.97,105.09-3.2.37-5.91.56-8.57,1.03-1.93.34-2.73-.12-3.07-2.17-2.17-13.29-4.67-26.53-6.68-39.84-3.18-21.1-6.07-42.24-9-63.37-.3-2.15-1.12-3.71-3.2-4.19-2.89-.66-5.84-1.39-8.78-1.48-15.82-.5-31.44,1.23-46.88,4.6-4.54.99-9.03,2.25-13.54,3.39ZM232.53,145.28c-.16-.35-.33-.71-.49-1.06.36-.22.72-.44,1.08-.65,5.81-3.48,11.63-6.95,17.43-10.45,1.39-.84,2.66-1.89,4.08-2.67,2.39-1.31,4.41-.75,5.73,1.59.61,1.08,1.09,2.32,1.26,3.54,1.71,11.76-1.43,21.84-11.24,29-9.02,6.59-19.16,11.11-30.25,12.66-10.11,1.42-20.34,2.12-30.53,2.8-9.57.64-19.19.58-28.75,1.28-16.51,1.21-33.03,2.38-49.47,4.28-15.55,1.8-30.4,6.41-44.2,13.99-7.52,4.13-13.79,9.71-18.36,16.97-3.77,5.99-3.73,12.2.44,18.06,4.48,6.31,10.11,11.15,18.06,12.42,3.66.58,7.37.81,11.06,1.19-1.89.57-3.82.87-5.76,1.09-10.09,1.17-19.27-1.13-27.18-7.61-8.5-6.96-10.06-15.8-6.53-26.27,2.05-6.08,6.25-11.17,11.48-15.2,7.29-5.61,15.11-10.14,23.84-13.23,28.96-10.25,58.9-14.54,89.48-15.04,14.48-.23,28.97-.26,43.45-.75,5.75-.19,11.6-.84,17.17-2.23,9.72-2.43,18.95-6.21,26.01-13.79,3.88-4.16,6.55-8.87,5.87-14.89-.34-3.04-1.69-4.07-4.56-3.01-1.94.72-3.73,1.85-5.64,2.64-4.47,1.83-8.97,3.57-13.46,5.35ZM174.39,154.65c3.85-.43,7.5-.98,11.18-1.21,5.24-.32,5.56-.66,4.55-5.73-1-5-1.9-10.03-2.82-14.94,1.49-.57,2.63-1.01,3.77-1.44-.9-.88-1.67-1.29-2.41-1.24-43.41,3.12-84.39,15.26-124.02,33.39.44-1.54.92-3.17,2.02-4.02,1.98-1.53,4.26-2.7,6.52-3.83,25.67-12.82,53.37-19.07,81.26-24.39,12.04-2.3,24.38-3.19,36.62-4.29,6.07-.54,12.23-.09,18.48-.09,2.37,8.84,4.84,18.04,7.28,27.11-24.17,2.48-47.79,4.9-71.41,7.33-.02-.04-.03-.09-.05-.13,6.49-1.78,12.99-3.56,19.74-5.42-1.05-5.63-2.07-11.08-3.11-16.63,2.99-.55,5.61-1.04,8.38-1.55,1.34,5.69,2.62,11.13,4.02,17.06Z"/>
      <path class="cls-1" d="M72.34,19.58c4.51-1.14,9-2.4,13.54-3.39,15.44-3.37,31.07-5.11,46.88-4.6,2.94.09,5.89.82,8.78,1.48,2.08.47,2.9,2.04,3.2,4.19,2.93,21.13,5.83,42.27,9,63.37,2,13.31,4.51,26.55,6.68,39.84.33,2.05,1.14,2.51,3.07,2.17,2.66-.47,5.37-.66,8.57-1.03-4.65-34.94-9.28-69.83-13.97-105.09,5.64-.21,10.57.61,15.01,3.18,1.14.66,1.93,2.66,2.11,4.14.85,6.82,1.33,13.68,2.12,20.51,1.66,14.29,3.45,28.56,5.14,42.84,1.3,11.04,2.51,22.1,3.81,33.52,4.42-.21,8.8-.33,13.18-.66,6.07-.45,6.13-.53,5.11-6.44-3.62-20.99-5.87-42.12-6.03-63.43-.07-8.76.35-17.53.39-26.29,0-.86-.91-2.2-1.72-2.53-7.75-3.18-15.43-6.67-23.4-9.17-19.76-6.19-40.05-7.01-60.45-4.35-14.19,1.85-27.9,5.77-40.99,11.74Z"/>
      <path class="cls-1" d="M232.53,145.28c4.49-1.78,8.99-3.52,13.46-5.35,1.92-.79,3.7-1.92,5.64-2.64,2.86-1.06,4.21-.03,4.56,3.01.68,6.02-1.99,10.73-5.87,14.89-7.06,7.58-16.29,11.36-26.01,13.79-5.57,1.39-11.42,2.04-17.17,2.23-14.47.49-28.96.51-43.45.75-30.59.49-60.52,4.79-89.48,15.04-8.73,3.09-16.55,7.62-23.84,13.23-5.23,4.03-9.43,9.12-11.48,15.2-3.53,10.47-1.97,19.31,6.53,26.27,7.91,6.48,17.09,8.78,27.18,7.61,1.94-.22,3.87-.52,5.76-1.09-3.69-.39-7.4-.61-11.06-1.19-7.95-1.26-13.58-6.1-18.06-12.42-4.16-5.86-4.21-12.07-.44-18.06,4.57-7.26,10.84-12.84,18.36-16.97,13.81-7.58,28.65-12.18,44.2-13.99,16.44-1.9,32.96-3.08,49.47-4.28,9.56-.7,19.18-.65,28.75-1.28,10.2-.68,20.42-1.38,30.53-2.8,11.09-1.55,21.22-6.07,30.25-12.66,9.81-7.16,12.95-17.23,11.24-29-.18-1.22-.66-2.46-1.26-3.54-1.31-2.35-3.34-2.9-5.73-1.59-1.42.78-2.69,1.83-4.08,2.67-5.8,3.5-11.62,6.97-17.43,10.45-.36.22-.72.43-1.08.65.16.35.33.71.49,1.06Z"/>
      <path class="cls-1" d="M174.39,154.65c-1.4-5.93-2.68-11.37-4.02-17.06-2.77.51-5.39.99-8.38,1.55,1.04,5.55,2.06,10.99,3.11,16.63-6.75,1.85-13.24,3.63-19.74,5.42.02.04.03.09.05.13,23.62-2.42,47.24-4.85,71.41-7.33-2.43-9.07-4.9-18.27-7.28-27.11-6.25,0-12.41-.45-18.48.09-12.24,1.09-24.58,1.99-36.62,4.29-27.89,5.32-55.59,11.57-81.26,24.39-2.25,1.13-4.54,2.3-6.52,3.83-1.1.85-1.58,2.48-2.02,4.02,39.63-18.13,80.61-30.27,124.02-33.39.74-.05,1.52.36,2.41,1.24-1.14.44-2.28.87-3.77,1.44.92,4.91,1.82,9.94,2.82,14.94,1.01,5.07.69,5.4-4.55,5.73-3.68.23-7.33.78-11.18,1.21Z"/>
    </g>
    <g>
      <path d="M421.74,28.16h.5l92.24,170.26-43.13,8.72-17.45-36.64h-65.06l-17.2,36.64-41.13-8.72L421.74,28.16ZM399.05,138.84h45.37l-22.68-41.88-22.68,41.88Z"/>
      <path d="M536.66,18.43l28.67,20.94-24.93,24.43-28.17-20.44,24.43-24.93ZM559.59,201.16l-38.89,3.99V76.52l38.89-3.99v128.63Z"/>
      <path d="M652.57,110.17c-2.83-2.16-5.98-3.9-9.47-5.24-3.49-1.33-7.15-1.99-10.97-1.99-8.81,0-13.21,2.58-13.21,7.73,0,4.16,1.99,6.98,5.98,8.48,3.99,1.5,8.73,2.83,14.21,3.99,4.32,1,8.81,2.12,13.46,3.37,4.65,1.25,8.93,3.28,12.84,6.11,3.9,2.83,7.1,6.69,9.6,11.59,2.49,4.9,3.74,11.43,3.74,19.57,0,6.65-1.33,12.67-3.99,18.07-2.66,5.4-6.32,9.97-10.97,13.71-4.65,3.74-10.06,6.61-16.2,8.6-6.15,1.99-12.71,2.99-19.69,2.99-5.32,0-10.14-.29-14.46-.87-4.32-.58-8.44-1.54-12.34-2.87-3.91-1.33-7.77-3.12-11.59-5.36-3.82-2.24-7.89-5.02-12.21-8.35l19.69-26.67c7.81,7.81,17.2,11.72,28.17,11.72,6.31,0,10.8-.91,13.46-2.74,2.66-1.83,3.99-4.32,3.99-7.48,0-1.99-.71-3.57-2.12-4.74-1.41-1.16-3.28-2.16-5.61-2.99-2.33-.83-4.99-1.53-7.98-2.12-2.99-.58-6.15-1.29-9.47-2.12-4.16-1-8.27-2.28-12.34-3.86-4.07-1.58-7.77-3.86-11.09-6.86-3.33-2.99-6.03-6.81-8.1-11.47-2.08-4.65-3.12-10.63-3.12-17.95,0-6.64,1.2-12.59,3.62-17.82,2.41-5.23,5.82-9.64,10.22-13.21,4.4-3.57,9.55-6.27,15.46-8.1,5.9-1.83,12.34-2.74,19.32-2.74,7.81,0,15.46,1.66,22.93,4.99,7.48,3.33,14.04,7.65,19.69,12.96l-21.44,21.69Z"/>
      <path d="M739.57,201.16l-38.89,3.99V29.4l38.89-3.99v175.75Z"/>
      <path d="M902.35,138.84c0,9.81-1.96,18.91-5.86,27.3-3.91,8.39-9.14,15.62-15.71,21.69-6.57,6.07-14.17,10.8-22.81,14.21-8.64,3.4-17.7,5.11-27.17,5.11s-18.78-1.74-27.42-5.23c-8.64-3.49-16.2-8.31-22.68-14.46-6.48-6.15-11.63-13.38-15.46-21.69-3.82-8.31-5.73-17.28-5.73-26.92s1.91-18.65,5.73-27.05c3.82-8.39,8.97-15.62,15.46-21.69,6.48-6.06,14.04-10.84,22.68-14.33,8.64-3.49,17.78-5.23,27.42-5.23s19.03,1.75,27.67,5.23c8.64,3.49,16.2,8.31,22.68,14.46,6.48,6.15,11.63,13.38,15.46,21.69,3.82,8.31,5.73,17.29,5.73,26.92ZM830.81,171c4.32,0,8.48-.83,12.46-2.49,3.99-1.66,7.48-3.95,10.47-6.86,2.99-2.91,5.36-6.31,7.1-10.22,1.75-3.9,2.62-8.1,2.62-12.59s-.83-8.43-2.49-12.34c-1.66-3.9-3.99-7.31-6.98-10.22-2.99-2.91-6.48-5.23-10.47-6.98s-8.31-2.62-12.96-2.62c-4.16,0-8.19.83-12.09,2.49-3.91,1.66-7.35,3.91-10.35,6.73-2.99,2.83-5.36,6.23-7.1,10.22s-2.62,8.23-2.62,12.71.87,8.44,2.62,12.34c1.75,3.91,4.07,7.31,6.98,10.22,2.91,2.91,6.31,5.23,10.22,6.98,3.9,1.74,8.1,2.62,12.59,2.62Z"/>
      <path d="M953.95,89.98h.5c4.99-7.48,10.47-12.59,16.45-15.33,5.98-2.74,11.72-4.11,17.2-4.11,16.12,0,27.92,4.61,35.4,13.84,7.48,9.22,11.22,22.4,11.22,39.51v77.28l-38.89,3.99v-78.28c0-6.65-1.71-11.88-5.11-15.7-3.41-3.82-8.19-5.73-14.33-5.73s-10.93,1.91-14.33,5.73c-3.41,3.82-5.11,9.06-5.11,15.7v74.29l-38.89,3.99V74.52l35.9-3.99v19.44Z"/>
    </g>
    <path d="M1051.76,82.46c0-12.34,9.97-22.31,22.37-22.31s22.31,9.97,22.31,22.31-10.03,22.37-22.31,22.37-22.37-9.97-22.37-22.37ZM1092.27,82.46c0-10.03-8.17-18.14-18.14-18.14s-18.2,8.11-18.2,18.14,8.11,18.2,18.2,18.2,18.14-8.11,18.14-18.2ZM1085.2,94.63h-5.45l-5.39-10.2h-4.75v10.2h-4.69v-24.11h11.65c2.09,0,4.69.06,6.55,1.16,2.14,1.45,2.84,3.77,2.84,6.26,0,4.4-2.32,6.2-6.61,6.49l5.85,10.2ZM1076.74,80.84c2.61.06,4.46-.58,4.46-3.59,0-3.25-3.42-3.25-5.74-3.25h-5.85v6.84h7.13Z"/>
    <g>
      <path d="M777.21,244.47c6.29,0,11.13,1.12,14.55,3.35,3.41,2.24,5.12,5.54,5.12,9.91,0,2.5-.62,4.69-1.84,6.56-1.23,1.87-2.82,3.22-4.79,4.05v.15c2.26.88,4.17,2.41,5.75,4.57,1.57,2.16,2.36,4.79,2.36,7.88,0,4.57-1.63,8.05-4.9,10.46-3.27,2.41-7.62,3.61-13.07,3.61h-17.61v-50.53h14.44ZM775.29,264.58h3.24c1.96,0,3.42-.48,4.38-1.44s1.44-2.22,1.44-3.79c0-1.18-.37-2.21-1.11-3.09-.44-.54-1.09-.98-1.95-1.33-.86-.34-2.12-.52-3.79-.52h-2.21v10.17ZM775.29,285.06h2.5c2.36,0,4.1-.25,5.23-.74,1.13-.49,1.88-1.13,2.25-1.92.37-.79.55-1.62.55-2.5,0-1.67-.49-2.98-1.47-3.94-.98-.96-2.9-1.44-5.75-1.44h-3.31v10.53Z"/>
      <path d="M820.59,285.87c1.87,0,3.29-.56,4.27-1.69.98-1.13,1.47-2.7,1.47-4.71v-21.88l11.49-1.18v38.01l-10.61,1.18v-5.75h-.15c-.88,2.06-2.21,3.63-3.98,4.71-1.77,1.08-3.76,1.62-5.97,1.62-4.62,0-8.07-1.31-10.35-3.94-2.28-2.63-3.42-6.54-3.42-11.75v-22.91l11.49-1.18v23.06c0,2.06.5,3.65,1.51,4.75,1.01,1.1,2.42,1.66,4.24,1.66Z"/>
      <path d="M864.05,267.53c-.83-.64-1.77-1.15-2.8-1.55-1.03-.39-2.11-.59-3.24-.59-2.6,0-3.9.76-3.9,2.28,0,1.23.59,2.06,1.77,2.5,1.18.44,2.58.84,4.2,1.18,1.28.29,2.6.63,3.98.99,1.38.37,2.64.97,3.79,1.8,1.15.84,2.1,1.98,2.84,3.43.74,1.45,1.1,3.38,1.1,5.78,0,1.96-.39,3.75-1.18,5.34-.79,1.6-1.87,2.95-3.24,4.05-1.38,1.1-2.97,1.95-4.79,2.54-1.82.59-3.76.88-5.82.88-1.57,0-3-.09-4.27-.26-1.28-.17-2.49-.45-3.65-.85-1.15-.39-2.3-.92-3.42-1.58-1.13-.66-2.33-1.48-3.61-2.47l5.82-7.88c2.31,2.31,5.08,3.46,8.32,3.46,1.87,0,3.19-.27,3.98-.81.79-.54,1.18-1.28,1.18-2.21,0-.59-.21-1.06-.63-1.4-.42-.34-.97-.64-1.66-.88-.69-.25-1.47-.45-2.36-.63-.88-.17-1.82-.38-2.8-.63-1.23-.29-2.44-.67-3.65-1.14-1.2-.47-2.3-1.14-3.28-2.03-.98-.88-1.78-2.01-2.39-3.39-.61-1.37-.92-3.14-.92-5.3,0-1.96.36-3.72,1.07-5.27s1.72-2.85,3.02-3.9c1.3-1.06,2.82-1.85,4.57-2.39,1.74-.54,3.65-.81,5.71-.81,2.31,0,4.57.49,6.78,1.47,2.21.98,4.15,2.26,5.82,3.83l-6.33,6.41Z"/>
      <path d="M882.98,240.42l8.47,6.19-7.37,7.22-8.32-6.04,7.22-7.37ZM889.76,294.42l-11.49,1.18v-38.01l11.49-1.18v38.01Z"/>
      <path d="M908.1,261.56h.15c1.47-2.21,3.09-3.72,4.86-4.53,1.77-.81,3.46-1.22,5.08-1.22,4.76,0,8.25,1.36,10.46,4.09,2.21,2.73,3.32,6.62,3.32,11.68v22.83l-11.49,1.18v-23.13c0-1.96-.5-3.51-1.51-4.64-1.01-1.13-2.42-1.69-4.24-1.69s-3.23.57-4.24,1.69c-1.01,1.13-1.51,2.68-1.51,4.64v21.95l-11.49,1.18v-38.6l10.61-1.18v5.75Z"/>
      <path d="M951.12,283.15c.69.98,1.61,1.68,2.76,2.1,1.15.42,2.29.63,3.43.63,2.06,0,4.01-.42,5.86-1.25,1.84-.83,3.55-1.89,5.12-3.17l6.04,8.84c-2.5,1.72-5.18,3.13-8.03,4.24-2.85,1.1-5.92,1.66-9.21,1.66-2.95,0-5.66-.58-8.14-1.73-2.48-1.15-4.63-2.65-6.45-4.49-1.82-1.84-3.24-3.94-4.27-6.3s-1.55-4.74-1.55-7.15c0-2.7.5-5.3,1.51-7.81,1.01-2.5,2.41-4.71,4.2-6.63,1.79-1.92,3.9-3.44,6.33-4.57,2.43-1.13,5.05-1.69,7.85-1.69,1.96,0,3.89.27,5.78.81,1.89.54,3.66,1.31,5.3,2.32,1.64,1.01,3.14,2.24,4.49,3.68,1.35,1.45,2.47,3.06,3.35,4.82l-24.38,15.69ZM961.72,266.94c-.59-.64-1.34-1.06-2.25-1.25-.91-.2-1.85-.29-2.84-.29-1.28,0-2.46.27-3.54.81-1.08.54-2.03,1.25-2.84,2.14-.81.88-1.44,1.93-1.88,3.13-.44,1.2-.66,2.47-.66,3.79v1.03l14-9.35Z"/>
      <path d="M999.14,267.53c-.83-.64-1.77-1.15-2.8-1.55-1.03-.39-2.11-.59-3.24-.59-2.6,0-3.9.76-3.9,2.28,0,1.23.59,2.06,1.77,2.5,1.18.44,2.58.84,4.2,1.18,1.28.29,2.6.63,3.98.99,1.38.37,2.64.97,3.79,1.8,1.15.84,2.1,1.98,2.84,3.43.74,1.45,1.1,3.38,1.1,5.78,0,1.96-.39,3.75-1.18,5.34-.79,1.6-1.87,2.95-3.24,4.05-1.38,1.1-2.97,1.95-4.79,2.54-1.82.59-3.76.88-5.82.88-1.57,0-3-.09-4.27-.26-1.28-.17-2.49-.45-3.65-.85-1.15-.39-2.3-.92-3.42-1.58-1.13-.66-2.33-1.48-3.61-2.47l5.82-7.88c2.31,2.31,5.08,3.46,8.32,3.46,1.87,0,3.19-.27,3.98-.81.79-.54,1.18-1.28,1.18-2.21,0-.59-.21-1.06-.63-1.4-.42-.34-.97-.64-1.66-.88-.69-.25-1.47-.45-2.36-.63-.88-.17-1.82-.38-2.8-.63-1.23-.29-2.44-.67-3.65-1.14-1.2-.47-2.3-1.14-3.28-2.03-.98-.88-1.78-2.01-2.39-3.39-.61-1.37-.92-3.14-.92-5.3,0-1.96.36-3.72,1.07-5.27s1.72-2.85,3.02-3.9c1.3-1.06,2.82-1.85,4.57-2.39,1.74-.54,3.65-.81,5.71-.81,2.31,0,4.57.49,6.78,1.47,2.21.98,4.15,2.26,5.82,3.83l-6.33,6.41Z"/>
      <path d="M1031.85,267.53c-.83-.64-1.77-1.15-2.8-1.55-1.03-.39-2.11-.59-3.24-.59-2.6,0-3.9.76-3.9,2.28,0,1.23.59,2.06,1.77,2.5,1.18.44,2.58.84,4.2,1.18,1.28.29,2.6.63,3.98.99,1.38.37,2.64.97,3.79,1.8,1.15.84,2.1,1.98,2.84,3.43.74,1.45,1.1,3.38,1.1,5.78,0,1.96-.39,3.75-1.18,5.34-.79,1.6-1.87,2.95-3.24,4.05-1.38,1.1-2.97,1.95-4.79,2.54-1.82.59-3.76.88-5.82.88-1.57,0-3-.09-4.27-.26-1.28-.17-2.49-.45-3.65-.85-1.15-.39-2.3-.92-3.42-1.58-1.13-.66-2.33-1.48-3.61-2.47l5.82-7.88c2.31,2.31,5.08,3.46,8.32,3.46,1.87,0,3.19-.27,3.98-.81.79-.54,1.18-1.28,1.18-2.21,0-.59-.21-1.06-.63-1.4-.42-.34-.97-.64-1.66-.88-.69-.25-1.47-.45-2.36-.63-.88-.17-1.82-.38-2.8-.63-1.23-.29-2.44-.67-3.65-1.14-1.2-.47-2.3-1.14-3.28-2.03-.98-.88-1.78-2.01-2.39-3.39-.61-1.37-.92-3.14-.92-5.3,0-1.96.36-3.72,1.07-5.27s1.72-2.85,3.02-3.9c1.3-1.06,2.82-1.85,4.57-2.39,1.74-.54,3.65-.81,5.71-.81,2.31,0,4.57.49,6.78,1.47,2.21.98,4.15,2.26,5.82,3.83l-6.33,6.41Z"/>
    </g>
  </g>
</svg>