<?xml version="1.0" encoding="UTF-8"?>
<svg id="Layer_2" data-name="Layer 2" xmlns="http://www.w3.org/2000/svg" viewBox="0 0 781.17 254.18">
  <defs>
    <style>
      .cls-1 {
        fill: #010101;
      }

      .cls-1, .cls-2 {
        stroke-width: 0px;
      }

      .cls-2 {
        fill: #231f20;
      }
    </style>
  </defs>
  <g id="Layer_1-2" data-name="Layer 1">
    <g>
      <path class="cls-1" d="M0,144.45C0,77.23,46.13,0,103.59,0c34.27,0,56.94,27.94,56.94,69.33,0,59.84-43.23,141.55-103.07,141.55C20.03,210.88,0,182.94,0,144.45ZM129.95,71.43c0-25.57-10.81-42.18-29.79-42.18-38.22,0-69.85,64.05-69.85,113.61,0,25.3,10.81,39.28,30.31,39.28,37.69,0,69.33-65.37,69.33-110.71Z"/>
      <path class="cls-1" d="M294.97,119.41c-6.33,11.86-27.41,25.04-48.77,19.77-12.65,27.94-34.27,48.24-58.25,48.24-20.03,0-27.94-14.23-27.94-31.37,0-21.09,10.28-52.72,18.98-75.92h27.94c-8.7,25.04-20.03,57.99-20.03,72.75,0,5.54,2.11,8.43,6.85,8.43,12.92,0,37.43-38.48,36.38-81.19h28.21c.53,12.92-1.05,26.1-4.48,38.49,11.07,2.64,21.88-1.58,28.73-12.65l12.39,13.44Z"/>
      <path class="cls-1" d="M389.86,126.79c-15.29,30.31-31.63,60.36-77.76,60.36-26.1,0-46.39-14.76-46.39-42.17,0-34.53,23.2-67.48,57.46-67.48,20.82,0,31.9,15.29,31.9,31.1,0,31.37-35.32,45.34-61.95,39.28,1.85,10.54,9.49,16.87,24.78,16.87,25.57,0,41.12-13.44,59.84-50.87l12.12,12.92ZM293.65,131.27c16.87,1.84,36.38-7.12,36.64-21.62.26-6.06-3.16-10.28-8.96-10.28-13.18,0-24.25,14.23-27.68,31.9Z"/>
      <path class="cls-1" d="M485.81,126.79c-9.75,22.14-34.79,60.36-59.84,60.36-16.08,0-24.51-11.6-24.51-25.04,0-16.34,8.17-33.21,18.45-55.09-5.27-.26-11.6-1.05-17.66-2.64-10.81,25.83-23.99,45.6-37.69,61.95-12.92,15.29-22.67-.53-11.33-13.71,18.71-21.88,29.26-53.51,36.38-81.71h23.99c-1.05,3.95-2.11,7.64-3.43,11.6,12.92,2.37,34.79,3.43,44.81,3.16-10.02,21.88-25.83,57.2-25.83,69.33,0,4.22,2.11,6.85,5.8,6.85,10.02,0,27.68-22.41,39.28-47.71l11.6,12.65Z"/>
      <path class="cls-1" d="M549.86,126.79c-10.02,22.41-34.79,60.36-60.1,60.36-36.64,0-30.31-38.75-14.23-86.2h-11.33l7.12-20.82h11.6l13.71-36.64h27.41c-5.54,13.71-10.28,25.83-14.5,36.64h22.14l-7.38,20.82h-22.41c-16.61,46.39-16.87,60.89-3.69,60.89,10.28,0,26.89-20.03,40.07-47.71l11.6,12.65Z"/>
      <path class="cls-1" d="M665.85,126.79c-10.02,22.41-34.79,60.36-60.1,60.36-12.65,0-19.77-8.7-21.35-17.66-5.8,9.23-15.29,17.66-30.05,17.66-18.19,0-29.79-15.02-29.79-38.22,0-35.32,24.51-71.43,54.3-71.43,10.54,0,20.82,6.59,24.78,13.71l3.69-11.07h26.89c-23.2,63.26-30.05,81.71-20.03,81.71s26.62-20.03,40.07-47.71l11.6,12.65ZM597.31,110.18c-3.43-5.01-9.23-8.7-15.82-8.7-17.4,0-29,24.51-29,44.81,0,8.43,3.69,15.55,12.13,15.55,11.6,0,22.14-16.87,32.69-51.67Z"/>
      <path class="cls-1" d="M714.61,151.04c-8.17,14.5-29,36.11-50.87,36.11-25.83,0-29.26-20.56-14.76-66.43,8.43-25.83,23.2-65.37,36.38-101.75h27.94c-16.87,43.76-30.84,83.56-38.22,105.97-9.75,28.73-10.81,36.9-2.9,36.9,6.59,0,18.72-12.39,27.68-25.57l14.76,14.76Z"/>
    </g>
    <path class="cls-1" d="M741.78,166.2c0-10.88,8.79-19.67,19.72-19.67s19.67,8.79,19.67,19.67-8.84,19.72-19.67,19.72-19.72-8.79-19.72-19.72ZM777.49,166.2c0-8.84-7.2-15.99-15.99-15.99s-16.04,7.15-16.04,15.99,7.15,16.04,16.04,16.04,15.99-7.15,15.99-16.04ZM771.26,176.92h-4.8l-4.75-8.99h-4.19v8.99h-4.14v-21.25h10.27c1.84,0,4.14.05,5.77,1.02,1.89,1.28,2.5,3.32,2.5,5.52,0,3.88-2.04,5.47-5.82,5.72l5.16,8.99ZM763.8,164.77c2.3.05,3.93-.51,3.93-3.17,0-2.86-3.01-2.86-5.06-2.86h-5.16v6.03h6.28Z"/>
    <g>
      <path class="cls-2" d="M406.64,242.85c.96,3.07,3.79,5.09,7.01,5.09,2.4,0,4.7-.91,5.95-2.3h7.06c-1.63,4.75-7.15,8.54-12.77,8.54-7.73,0-14.02-6.24-14.02-13.97s6.14-14.35,14.11-14.35,13.63,6.53,13.63,13.97c0,1.01-.19,2.02-.34,3.02h-20.64ZM421.19,237.18c-1.06-3.17-3.98-5.09-7.25-5.09s-6.43,2.02-7.39,5.09h14.64Z"/>
      <path class="cls-2" d="M432.7,235.21h13.3v5.67h-13.3v-5.67Z"/>
      <path class="cls-2" d="M478.16,244.67c-1.73,5.66-7.34,9.5-13.2,9.5-3.6,0-7.3-1.49-9.89-3.98-2.88-2.74-4.32-6.43-4.32-10.37,0-7.78,6.43-13.97,14.16-13.97,5.86,0,11.67,3.94,13.25,9.7h-7.2c-1.39-2.35-3.41-3.46-6.14-3.46-4.56,0-7.68,3.41-7.68,7.82,0,4.71,3.36,8.02,8.02,8.02,2.35,0,4.61-1.3,5.81-3.26h7.2Z"/>
      <path class="cls-2" d="M509.75,240.06c0,7.87-6.38,14.11-14.21,14.11s-14.06-6.38-14.06-14.11,6.38-14.21,14.35-14.21,13.92,6.48,13.92,14.21ZM490.07,234.54c-1.49,1.49-2.21,3.41-2.21,5.52,0,4.27,3.31,7.87,7.68,7.87s7.83-3.41,7.83-7.87-3.41-7.97-7.83-7.97c-1.97,0-4.13,1.01-5.47,2.45Z"/>
      <path class="cls-2" d="M513.34,226.72h5.86v2.45h.1c1.15-2.4,4.42-3.31,6.91-3.31,2.74,0,5.42,1.15,7.1,3.31.24.24.43.53.62.82.19-.34.43-.62.67-.82,1.87-2.26,4.9-3.31,7.78-3.31,3.12,0,6,.91,8.11,3.31,2.45,2.64,2.74,5.76,2.74,9.22v14.93h-6.38v-14.16c0-1.54-.05-3.74-.96-5.09-.82-1.25-2.45-1.97-3.98-1.97-1.78,0-3.46.77-4.42,2.3-1.1,1.73-1.01,4.32-1.01,6.24v12.67h-6.38v-14.16c0-1.73,0-3.36-1.01-4.9-.91-1.39-2.54-2.16-4.18-2.16-5.09,0-5.18,4.8-5.18,8.54v12.67h-6.38v-26.59Z"/>
      <path class="cls-2" d="M558.46,226.72h5.86v2.45h.1c1.15-2.4,4.42-3.31,6.91-3.31,2.74,0,5.42,1.15,7.1,3.31.24.24.43.53.62.82.19-.34.43-.62.67-.82,1.87-2.26,4.9-3.31,7.78-3.31,3.12,0,6,.91,8.11,3.31,2.45,2.64,2.74,5.76,2.74,9.22v14.93h-6.38v-14.16c0-1.54-.05-3.74-.96-5.09-.82-1.25-2.45-1.97-3.98-1.97-1.78,0-3.46.77-4.42,2.3-1.1,1.73-1.01,4.32-1.01,6.24v12.67h-6.38v-14.16c0-1.73,0-3.36-1.01-4.9-.91-1.39-2.54-2.16-4.18-2.16-5.09,0-5.18,4.8-5.18,8.54v12.67h-6.38v-26.59Z"/>
      <path class="cls-2" d="M609.2,242.85c.96,3.07,3.79,5.09,7.01,5.09,2.4,0,4.7-.91,5.95-2.3h7.06c-1.63,4.75-7.15,8.54-12.77,8.54-7.73,0-14.02-6.24-14.02-13.97s6.14-14.35,14.11-14.35,13.63,6.53,13.63,13.97c0,1.01-.19,2.02-.34,3.02h-20.64ZM623.74,237.18c-1.06-3.17-3.98-5.09-7.25-5.09s-6.43,2.02-7.39,5.09h14.64Z"/>
      <path class="cls-2" d="M634.3,226.72h5.81v2.4h.1c1.39-2.26,3.07-3.26,5.71-3.26h.48v6.19c-1.3,0-2.83.43-3.89,1.25-1.82,1.49-1.87,3.46-1.82,5.66v14.35h-6.38v-26.59Z"/>
      <path class="cls-2" d="M674.63,244.67c-1.73,5.66-7.34,9.5-13.2,9.5-3.6,0-7.3-1.49-9.89-3.98-2.88-2.74-4.32-6.43-4.32-10.37,0-7.78,6.43-13.97,14.16-13.97,5.86,0,11.67,3.94,13.25,9.7h-7.2c-1.39-2.35-3.41-3.46-6.14-3.46-4.56,0-7.68,3.41-7.68,7.82,0,4.71,3.36,8.02,8.02,8.02,2.35,0,4.61-1.3,5.81-3.26h7.2Z"/>
      <path class="cls-2" d="M684.7,242.85c.96,3.07,3.79,5.09,7.01,5.09,2.4,0,4.7-.91,5.95-2.3h7.06c-1.63,4.75-7.15,8.54-12.77,8.54-7.73,0-14.02-6.24-14.02-13.97s6.14-14.35,14.11-14.35,13.63,6.53,13.63,13.97c0,1.01-.19,2.02-.34,3.02h-20.64ZM699.25,237.18c-1.06-3.17-3.98-5.09-7.25-5.09s-6.43,2.02-7.39,5.09h14.64Z"/>
    </g>
  </g>
</svg>