<?xml version="1.0" encoding="iso-8859-1"?>
<!-- Generator: Adobe Illustrator 19.0.0, SVG Export Plug-In . SVG Version: 6.00 Build 0)  -->
<svg version="1.1" id="Layer_1" xmlns="http://www.w3.org/2000/svg" xmlns:xlink="http://www.w3.org/1999/xlink" x="0px" y="0px"
	 viewBox="0 0 512.004 512.004" style="enable-background:new 0 0 512.004 512.004;" xml:space="preserve">
<path style="fill:#B53C2F;" d="M390.733,360.103c0,0-37.728,69.685-118.091,44.864c-10.878-3.36-22.407-3.36-33.285,0
	c-80.363,24.821-118.091-44.864-118.091-44.864c61.037-4.389,84.761-61.314,84.761-61.314l11.998-3.713
	c24.851-7.689,51.098-7.689,75.949,0l11.997,3.713C305.971,298.789,329.696,355.714,390.733,360.103z"/>
<path style="fill:#FF5845;" d="M255.999,310.81v87.339c0,31.142-25.289,56.384-56.49,56.384h-37.808
	c-43.351,0-78.494-35.077-78.494-78.346V235.805c0-21.082-17.126-38.176-38.248-38.176H32.153c-6.713,0-12.789-2.713-17.198-7.115
	c-4.392-4.383-7.119-10.455-7.119-17.156c0-3.459,2.817-6.269,6.282-6.269h49.363c37.24,0,67.425,30.128,67.425,67.298v105.394
	c0,22.942,18.629,41.536,41.605,41.536h11.132c15.362,0,27.809-12.423,27.809-27.757V310.81H255.999z"/>
<g>
	<path style="fill:#E8C1B5;" d="M255.999,310.81v87.339c0,31.142-25.289,56.384-56.49,56.384h-37.808
		c-43.351,0-78.494-35.077-78.494-78.346V235.805c0-21.082-17.126-38.176-38.248-38.176h-2.691l-0.009-0.153h26.783
		c20.411,0,36.961,16.519,36.961,36.901v120.08c0,37.565,30.517,68.017,68.153,68.017h18.197c24.38,0,44.143-19.726,44.143-44.06
		v-67.604h19.503V310.81z"/>
	<path style="fill:#E8C1B5;" d="M255.999,310.806v87.343c0,31.138-25.287,56.383-56.487,56.383h-37.815
		c-43.342,0-78.493-35.077-78.493-78.346V235.804c0-21.086-17.126-38.181-38.243-38.181h-2.696l-0.01-0.146h26.791
		c20.02,0,36.321,15.893,36.937,35.736c0.01,0.387,0.021,0.773,0.021,1.16v120.08c0,37.575,30.521,68.023,68.148,68.023h18.202
		c24.377,0,44.147-19.728,44.147-44.063v-67.605H255.999z"/>
</g>
<g>
	<path style="fill:#C7917F;" d="M196.893,422.473h18.197c18.511,0,34.351-11.378,40.909-27.505v-84.159h-19.502v67.604
		c0,23.574-18.548,42.824-41.873,44.003C195.378,422.44,196.132,422.473,196.893,422.473z"/>
	<path style="fill:#C7917F;" d="M184.434,454.532h-22.737c-43.342,0-78.493-35.077-78.493-78.346V235.804
		c0-21.086-17.126-38.181-38.243-38.181h-2.696l-0.01-0.146h26.791c20.02,0,36.321,15.893,36.937,35.736
		c-0.031,0.888-0.042,1.755-0.042,2.591v140.382C105.941,419.455,141.092,454.532,184.434,454.532z"/>
</g>
<path style="fill:#FF5845;" d="M255.999,310.81v87.339c0,31.142,25.289,56.384,56.49,56.384h37.808
	c43.351,0,78.494-35.077,78.494-78.346V235.805c0-21.082,17.126-38.176,38.249-38.176h12.806c6.713,0,12.789-2.713,17.198-7.115
	c4.392-4.383,7.119-10.456,7.119-17.157c0-3.459-2.817-6.269-6.282-6.269h-49.363c-37.24,0-67.425,30.128-67.425,67.298v105.394
	c0,22.942-18.629,41.536-41.605,41.536h-11.132c-15.362,0-27.809-12.423-27.809-27.757v-42.749h-44.547V310.81z"/>
<path style="fill:#E8C1B5;" d="M255.999,310.81v87.339c0,31.142,25.289,56.384,56.49,56.384h37.808
	c43.351,0,78.494-35.077,78.494-78.346V235.805c0-21.082,17.126-38.176,38.249-38.176h2.691l0.009-0.153h-26.783
	c-20.411,0-36.961,16.519-36.961,36.901v120.08c0,37.565-30.517,68.017-68.153,68.017h-18.198c-24.38,0-44.143-19.726-44.143-44.06
	v-67.604h-19.502V310.81z"/>
<path style="fill:#FF5845;" d="M296.371,326.978h-80.744c-2.306,0-4.175-1.869-4.175-4.175v-94.49c0-2.306,1.869-4.175,4.175-4.175
	h80.744c2.306,0,4.175,1.869,4.175,4.175v94.49C300.547,325.109,298.678,326.978,296.371,326.978z"/>
<path style="fill:#B53C2F;" d="M232.349,322.803v-94.49c0-2.306,1.869-4.175,4.175-4.175h-20.898c-2.306,0-4.175,1.869-4.175,4.175
	v94.49c0,2.306,1.869,4.175,4.175,4.175h20.898C234.219,326.978,232.349,325.109,232.349,322.803z"/>
<path style="fill:#FF5845;" d="M291.85,258.998h-71.702c-22.132,0-40.073-17.941-40.073-40.073v-85.601
	c0-41.892,33.96-75.852,75.852-75.852h0.143c41.892,0,75.852,33.96,75.852,75.852v85.601
	C331.923,241.057,313.981,258.998,291.85,258.998z"/>
<path style="fill:#B53C2F;" d="M200.973,218.925v-85.601c0-38.37,28.495-70.066,65.475-75.128
	c-3.395-0.465-6.856-0.725-10.378-0.725h-0.143c-41.892,0-75.853,33.96-75.853,75.852v85.601c0,22.132,17.941,40.073,40.073,40.073
	h20.898C218.914,258.998,200.973,241.057,200.973,218.925z"/>
<g>
	<ellipse style="fill:#E1E9F2;" cx="211.455" cy="270.327" rx="25.043" ry="24.996"/>
	<ellipse style="fill:#E1E9F2;" cx="300.543" cy="270.327" rx="25.043" ry="24.996"/>
</g>
<path d="M497.882,159.254h-49.361c-41.501,0-75.264,33.702-75.264,75.128v105.399c0,3.108-0.433,6.114-1.225,8.973
	c-33.603-10.195-51.331-38.557-56.879-49.028c10.82-5.381,18.274-16.537,18.274-29.404c0-7.126-2.292-13.724-6.169-19.111
	c8.022-8.748,12.5-20.13,12.5-32.283v-29.456c0-4.328-3.508-7.837-7.837-7.837c-4.329,0-7.837,3.509-7.837,7.837v29.456
	c0,8.346-3.142,16.149-8.751,22.082c-4.449-2.247-9.47-3.521-14.786-3.521c-10.974,0-20.702,5.401-26.677,13.675h-35.742
	c-5.976-8.273-15.704-13.675-26.677-13.675c-5.316,0-10.338,1.275-14.786,3.521c-5.609-5.933-8.751-13.737-8.751-22.082v-85.608
	c0-37.502,30.51-68.012,68.012-68.012h0.147c37.502,0,68.012,30.51,68.012,68.012v11.097c0,4.328,3.508,7.837,7.837,7.837
	s7.837-3.509,7.837-7.837v-11.097c0-46.145-37.541-83.686-83.686-83.686h-0.147c-46.145,0-83.686,37.541-83.686,83.686v85.608
	c0,12.153,4.478,23.535,12.5,32.283c-3.877,5.387-6.169,11.985-6.169,19.111c0,12.867,7.454,24.022,18.273,29.403
	c-5.556,10.486-23.283,38.835-56.878,49.028c-0.793-2.859-1.225-5.866-1.225-8.973V234.383c0-41.426-33.764-75.128-75.264-75.128
	c-4.329,0-7.837,3.509-7.837,7.837c0,4.328,3.508,7.837,7.837,7.837c32.858,0,59.591,26.671,59.591,59.455v105.399
	c0,27.224,22.181,49.371,49.444,49.371h11.128c19.658,0,35.652-15.97,35.652-35.6v-18.735h9.373v43.593
	c0,19.975-16.289,36.227-36.31,36.227h-18.202c-33.256,0-60.312-26.999-60.312-60.186v-120.08c0-24.665-20.094-44.732-44.795-44.732
	H42.255c-0.501,0-0.994,0.053-1.477,0.146H32.15c-4.408,0-8.551-1.71-11.657-4.81c-2.734-2.736-4.389-6.258-4.747-10.049h7.764
	c4.329,0,7.837-3.509,7.837-7.837c0-4.328-3.508-7.837-7.837-7.837h-9.394C6.333,159.254,0,165.582,0,173.361
	c0,8.567,3.342,16.629,9.418,22.706c6.074,6.057,14.147,9.394,22.734,9.394h10.116h2.696c16.766,0,30.407,13.612,30.407,30.344
	v140.382c0,40.097,27.571,73.885,64.781,83.465c6.89,1.774,14.111,2.718,21.55,2.718h37.815c24.34,0,45.564-13.569,56.487-33.527
	c10.923,19.958,32.146,33.527,56.487,33.527c4.329,0,7.837-3.509,7.837-7.837s-3.508-7.837-7.837-7.837
	c-26.826,0-48.65-21.778-48.65-48.546v-63.331h3.824v43.593c0,13.491,5.185,25.792,13.666,35.031
	c0.301,0.381,0.637,0.731,1.003,1.05c9.455,9.745,22.684,15.819,37.314,15.819h18.202c41.898,0,75.985-34.03,75.985-75.86v-120.08
	c0-11.432,6.65-21.344,16.293-26.085c-0.409,0.545-0.802,1.102-1.187,1.667c-0.114,0.167-0.224,0.339-0.336,0.508
	c-0.265,0.401-0.527,0.806-0.781,1.215c-0.125,0.204-0.25,0.408-0.372,0.613c-0.238,0.398-0.469,0.8-0.695,1.206
	c-0.112,0.201-0.225,0.4-0.333,0.602c-0.261,0.485-0.512,0.976-0.757,1.472c-0.06,0.12-0.122,0.238-0.181,0.358
	c-0.296,0.614-0.577,1.237-0.846,1.866c-0.075,0.176-0.143,0.353-0.216,0.53c-0.19,0.462-0.376,0.925-0.552,1.394
	c-0.087,0.23-0.168,0.462-0.251,0.694c-0.154,0.432-0.301,0.865-0.442,1.303c-0.076,0.236-0.153,0.473-0.226,0.712
	c-0.146,0.48-0.282,0.963-0.413,1.449c-0.051,0.189-0.107,0.376-0.155,0.566c-0.172,0.673-0.33,1.351-0.471,2.035
	c-0.028,0.137-0.05,0.276-0.077,0.414c-0.109,0.553-0.21,1.109-0.299,1.668c-0.038,0.239-0.07,0.48-0.104,0.72
	c-0.067,0.471-0.129,0.945-0.182,1.421c-0.028,0.255-0.055,0.51-0.079,0.766c-0.046,0.492-0.083,0.987-0.114,1.485
	c-0.014,0.228-0.031,0.453-0.043,0.682c-0.033,0.721-0.055,1.444-0.055,2.172v140.382c0,38.879-31.696,70.51-70.656,70.51
	c-4.329,0-7.837,3.509-7.837,7.837s3.508,7.837,7.837,7.837c7.438,0,14.659-0.944,21.55-2.718
	c37.21-9.58,64.781-43.368,64.781-83.465V235.804c0-16.732,13.64-30.344,30.407-30.344h2.696h10.116
	c8.587,0,16.66-3.336,22.741-9.401c6.069-6.07,9.41-14.13,9.41-22.698C511.999,165.582,505.666,159.254,497.882,159.254z
	 M364.216,362.697c-6.171,6.626-14.97,10.782-24.73,10.782h-11.128c-11.016,0-19.978-8.939-19.978-19.926v-30.751v-3.915
	C318.224,333.358,336.095,353.176,364.216,362.697z M300.547,253.163c9.488,0,17.207,7.698,17.207,17.159
	s-7.72,17.159-17.207,17.159c-9.488,0-17.207-7.698-17.207-17.159S291.059,253.163,300.547,253.163z M211.451,253.163
	c9.488,0,17.207,7.698,17.207,17.159s-7.72,17.159-17.207,17.159c-9.488,0-17.207-7.698-17.207-17.159
	S201.963,253.163,211.451,253.163z M203.618,353.553c0,10.987-8.962,19.926-19.978,19.926h-11.128
	c-9.758,0-18.558-4.157-24.73-10.782c28.121-9.522,45.992-29.339,55.836-43.811v3.915L203.618,353.553L203.618,353.553z
	 M219.292,310.806v-8.602c14.356-3.521,25.04-16.476,25.04-31.883c0-1.178-0.066-2.34-0.187-3.486h23.709
	c-0.122,1.146-0.187,2.308-0.187,3.486c0,15.406,10.684,28.362,25.04,31.883v8.602v8.338h-73.415V310.806z M248.162,398.149
	c0,26.768-21.825,48.546-48.65,48.546h-37.815c-38.96,0-70.656-31.63-70.656-70.51V235.804c0-0.728-0.022-1.452-0.055-2.172
	c-0.01-0.228-0.028-0.455-0.043-0.682c-0.03-0.496-0.067-0.992-0.114-1.485c-0.024-0.256-0.051-0.511-0.079-0.766
	c-0.053-0.476-0.114-0.95-0.182-1.421c-0.034-0.24-0.067-0.481-0.104-0.72c-0.089-0.557-0.189-1.111-0.298-1.66
	c-0.027-0.14-0.05-0.282-0.079-0.421c-0.141-0.684-0.3-1.361-0.471-2.034c-0.048-0.19-0.103-0.377-0.155-0.566
	c-0.131-0.486-0.266-0.97-0.413-1.449c-0.073-0.238-0.149-0.474-0.226-0.712c-0.141-0.437-0.288-0.871-0.442-1.303
	c-0.083-0.232-0.165-0.464-0.251-0.694c-0.176-0.469-0.36-0.932-0.552-1.394c-0.073-0.177-0.141-0.354-0.216-0.53
	c-0.27-0.629-0.551-1.252-0.846-1.866c-0.059-0.121-0.121-0.238-0.181-0.358c-0.243-0.495-0.495-0.986-0.757-1.472
	c-0.109-0.203-0.222-0.401-0.333-0.602c-0.226-0.405-0.457-0.808-0.695-1.206c-0.122-0.206-0.247-0.41-0.372-0.613
	c-0.253-0.409-0.514-0.812-0.779-1.213c-0.113-0.17-0.224-0.343-0.339-0.512c-0.385-0.563-0.777-1.12-1.186-1.665
	c9.643,4.741,16.293,14.653,16.293,26.085v120.08c0,41.829,34.087,75.86,75.985,75.86h18.202c14.638,0,27.873-6.081,37.329-15.834
	c0.354-0.31,0.681-0.651,0.974-1.02c8.49-9.241,13.681-21.549,13.681-35.046v-43.593h3.824v63.332H248.162z M491.513,184.969
	c-3.113,3.106-7.256,4.817-11.664,4.817h-8.628c-0.484-0.093-0.978-0.146-1.477-0.146h-26.791c-24.7,0-44.795,20.067-44.795,44.732
	v120.08c0,33.187-27.056,60.186-60.311,60.186h-18.202c-20.021,0-36.31-16.251-36.31-36.227v-43.593h9.373v18.735
	c0,19.629,15.994,35.6,35.652,35.6h11.128c27.263,0,49.444-22.148,49.444-49.371V234.383c0-32.784,26.733-59.455,59.591-59.455
	h47.731C495.894,178.719,494.241,182.24,491.513,184.969z"/>
<circle cx="213.816" cy="117.072" r="7.837"/>
<circle cx="226.784" cy="161.135" r="7.837"/>
<circle cx="255.999" cy="136.58" r="7.837"/>
<circle cx="287.701" cy="161.135" r="7.837"/>
<circle cx="300.543" cy="117.072" r="7.837"/>
<circle cx="300.543" cy="270.348" r="7.837"/>
<circle cx="211.455" cy="270.348" r="7.837"/>
<g>
</g>
<g>
</g>
<g>
</g>
<g>
</g>
<g>
</g>
<g>
</g>
<g>
</g>
<g>
</g>
<g>
</g>
<g>
</g>
<g>
</g>
<g>
</g>
<g>
</g>
<g>
</g>
<g>
</g>
</svg>
