<svg id="Capa_1" enable-background="new 0 0 510 510" height="512" viewBox="0 0 510 510" width="512" xmlns="http://www.w3.org/2000/svg" xmlns:xlink="http://www.w3.org/1999/xlink"><linearGradient id="lg1"><stop offset="0" stop-color="#edf5ff"/><stop offset="1" stop-color="#c7e9ff"/></linearGradient><linearGradient id="SVGID_1_" gradientUnits="userSpaceOnUse" x1="211.119" x2="241.218" xlink:href="#lg1" y1="276.652" y2="283.973"/><linearGradient id="SVGID_2_" gradientUnits="userSpaceOnUse" x1="276.045" x2="319.16" xlink:href="#lg1" y1="283.731" y2="295.933"/><linearGradient id="lg2"><stop offset="0" stop-color="#2f73a0"/><stop offset="1" stop-color="#174461"/></linearGradient><linearGradient id="SVGID_3_" gradientUnits="userSpaceOnUse" x1="286.749" x2="233.665" xlink:href="#lg2" y1="236.027" y2="236.027"/><linearGradient id="SVGID_4_" gradientUnits="userSpaceOnUse" x1="255" x2="255" y1="405.403" y2="434.403"><stop offset="0" stop-color="#7acbff" stop-opacity="0"/><stop offset="1" stop-color="#2f73a0"/></linearGradient><linearGradient id="lg3"><stop offset="0" stop-color="#2f73a0"/><stop offset="1" stop-color="#43765a"/></linearGradient><linearGradient id="SVGID_5_" gradientUnits="userSpaceOnUse" x1="47.438" x2="462.562" xlink:href="#lg3" y1="56.305" y2="56.305"/><linearGradient id="SVGID_6_" gradientUnits="userSpaceOnUse" x1="22.556" x2="487.444" xlink:href="#lg3" y1="167.951" y2="167.951"/><linearGradient id="lg4"><stop offset="0" stop-color="#7acbff"/><stop offset="1" stop-color="#45a2e0"/></linearGradient><linearGradient id="SVGID_7_" gradientUnits="userSpaceOnUse" x1="237.805" x2="280.123" xlink:href="#lg4" y1="39.11" y2="81.428"/><linearGradient id="SVGID_8_" gradientTransform="matrix(-1 0 0 -1 -1752 -687)" gradientUnits="userSpaceOnUse" x1="-2016.792" x2="-1992.694" xlink:href="#lg4" y1="-753.097" y2="-728.999"/><linearGradient id="SVGID_9_" gradientUnits="userSpaceOnUse" x1="14.513" x2="56.831" xlink:href="#lg4" y1="262.402" y2="304.72"/><linearGradient id="SVGID_10_" gradientTransform="matrix(-1 0 0 -1 -1752 -687)" gradientUnits="userSpaceOnUse" x1="-1793.5" x2="-1769.402" xlink:href="#lg4" y1="-976.389" y2="-952.291"/><linearGradient id="SVGID_11_" gradientUnits="userSpaceOnUse" x1="461.097" x2="503.415" xlink:href="#lg4" y1="262.402" y2="304.72"/><linearGradient id="SVGID_12_" gradientTransform="matrix(-1 0 0 -1 -1752 -687)" gradientUnits="userSpaceOnUse" x1="-2240.084" x2="-2215.986" xlink:href="#lg4" y1="-976.389" y2="-952.291"/><linearGradient id="SVGID_13_" gradientUnits="userSpaceOnUse" x1="27.164" x2="72.364" xlink:href="#lg3" y1="56.305" y2="56.305"/><linearGradient id="SVGID_14_" gradientUnits="userSpaceOnUse" x1="437.636" x2="482.836" xlink:href="#lg3" y1="56.305" y2="56.305"/><linearGradient id="SVGID_15_" gradientUnits="userSpaceOnUse" x1="251.399" x2="261.399" xlink:href="#lg2" y1="442.961" y2="485.961"/><g><g><g><path d="m255 110.171v350.037h-51.204c-11.161 0-20.21-9.048-20.21-20.21v-30.625c0-13.218-5.251-25.896-14.598-35.242l-19.081-19.081c-15.012-15.012-18.867-37.886-9.603-56.989l93.476-192.764c5.175-10.671 21.22-6.986 21.22 4.874z" fill="url(#SVGID_1_)"/><path d="m255 110.171v350.037h51.204c11.162 0 20.21-9.048 20.21-20.21v-30.625c0-13.218 5.251-25.896 14.598-35.242l19.081-19.081c15.012-15.012 18.867-37.886 9.603-56.989l-93.476-192.763c-5.175-10.672-21.22-6.987-21.22 4.873z" fill="url(#SVGID_2_)"/></g><path d="m263.218 283.306v-175.821c0-4.377-3.303-8.199-7.671-8.482-4.786-.31-8.765 3.481-8.765 8.2v175.693c0 11.504-4.822 22.622-13.64 30.01-8.157 6.833-13.064 17.416-12.068 29.098 1.412 16.555 14.931 29.834 31.507 30.979 19.901 1.375 36.472-14.362 36.472-33.97 0-10.268-4.546-19.473-11.734-25.715-8.758-7.603-14.101-18.393-14.101-29.992z" fill="url(#SVGID_3_)"/><path d="m177.614 385.727c3.882 7.203 5.972 15.316 5.972 23.647v30.625c0 11.162 9.048 20.21 20.21 20.21h51.204 51.204c11.161 0 20.21-9.048 20.21-20.21v-30.625c0-8.331 2.09-16.444 5.972-23.647z" fill="url(#SVGID_4_)"/></g><path d="m453.41 65.457h-396.82c-5.054 0-9.152-4.097-9.152-9.152s4.097-9.152 9.152-9.152h396.82c5.054 0 9.152 4.097 9.152 9.152s-4.098 9.152-9.152 9.152z" fill="url(#SVGID_5_)"/><path d="m478.292 288.749c-5.054 0-9.152-4.097-9.152-9.152 0-118.077-96.063-214.14-214.14-214.14s-214.14 96.063-214.14 214.14c0 5.054-4.097 9.152-9.152 9.152s-9.152-4.097-9.152-9.152c0-128.17 104.274-232.444 232.444-232.444s232.444 104.274 232.444 232.444c0 5.054-4.098 9.152-9.152 9.152z" fill="url(#SVGID_6_)"/><g><path d="m268.872 88.013h-27.745c-9.85 0-17.836-7.985-17.836-17.836v-27.744c0-9.85 7.985-17.836 17.836-17.836h27.745c9.85 0 17.836 7.985 17.836 17.836v27.745c0 9.85-7.985 17.835-17.836 17.835z" fill="url(#SVGID_7_)"/><path d="m247.101 38.249h15.799c5.609 0 10.156 4.547 10.156 10.156v15.799c0 5.609-4.547 10.156-10.156 10.156h-15.799c-5.609 0-10.156-4.547-10.156-10.156v-15.798c-.001-5.61 4.546-10.157 10.156-10.157z" fill="url(#SVGID_8_)"/></g><g><g><path d="m45.58 311.305h-27.744c-9.851 0-17.836-7.985-17.836-17.836v-27.745c0-9.85 7.985-17.836 17.836-17.836h27.744c9.85 0 17.836 7.985 17.836 17.836v27.745c0 9.851-7.985 17.836-17.836 17.836z" fill="url(#SVGID_9_)"/><path d="m23.809 261.541h15.799c5.609 0 10.156 4.547 10.156 10.156v15.799c0 5.609-4.547 10.156-10.156 10.156h-15.799c-5.609 0-10.156-4.547-10.156-10.156v-15.799c-.001-5.609 4.546-10.156 10.156-10.156z" fill="url(#SVGID_10_)"/></g><g><path d="m492.164 311.305h-27.744c-9.85 0-17.836-7.985-17.836-17.836v-27.745c0-9.85 7.985-17.836 17.836-17.836h27.745c9.85 0 17.836 7.985 17.836 17.836v27.745c-.001 9.851-7.986 17.836-17.837 17.836z" fill="url(#SVGID_11_)"/><path d="m470.392 261.541h15.799c5.609 0 10.156 4.547 10.156 10.156v15.799c0 5.609-4.547 10.156-10.156 10.156h-15.799c-5.609 0-10.156-4.547-10.156-10.156v-15.799c0-5.609 4.547-10.156 10.156-10.156z" fill="url(#SVGID_12_)"/></g></g><g><circle cx="49.764" cy="56.305" fill="url(#SVGID_13_)" r="22.6"/><circle cx="460.236" cy="56.305" fill="url(#SVGID_14_)" r="22.6"/></g><path d="m327.043 485.403h-144.086c-7.984 0-14.457-6.473-14.457-14.457v-25c0-7.984 6.473-14.457 14.457-14.457h144.086c7.984 0 14.457 6.473 14.457 14.457v25c0 7.984-6.473 14.457-14.457 14.457z" fill="url(#SVGID_15_)"/></g></svg>